<svg xmlns="http://www.w3.org/2000/svg" width="31.274" height="24.325" viewBox="0 0 31.274 24.325"><defs><style>.a{fill:#302d3a;}</style></defs><path class="a" d="M29.441,2.253c-2.975.169-8.889.783-12.54,3.018a.835.835,0,0,0-.395.715V25.743a.859.859,0,0,0,1.264.732c3.756-1.891,9.189-2.406,11.875-2.548a1.693,1.693,0,0,0,1.63-1.665V3.92a1.7,1.7,0,0,0-1.834-1.667ZM14.374,5.271C10.724,3.036,4.81,2.422,1.834,2.253A1.7,1.7,0,0,0,0,3.92V22.264a1.693,1.693,0,0,0,1.63,1.665c2.687.141,8.122.658,11.878,2.549a.857.857,0,0,0,1.26-.731V5.976A.817.817,0,0,0,14.374,5.271Z" transform="translate(0 -2.25)"/></svg>