<svg xmlns="http://www.w3.org/2000/svg" width="17.963" height="23.951" viewBox="0 0 17.963 23.951"><defs><style>.a{fill:#f56962;}</style></defs><path class="a" d="M13.472,11.975H4.491v2.994h8.981Zm4.163-7.064L13.056.327a1.122,1.122,0,0,0-.8-.327h-.285V5.988h5.988V5.7A1.119,1.119,0,0,0,17.635,4.912Zm-7.157,1.45V0H1.123A1.12,1.12,0,0,0,0,1.123V22.828a1.12,1.12,0,0,0,1.123,1.123H16.84a1.12,1.12,0,0,0,1.123-1.123V7.485H11.6A1.126,1.126,0,0,1,10.478,6.362ZM2.994,3.368a.374.374,0,0,1,.374-.374H7.11a.374.374,0,0,1,.374.374v.748a.374.374,0,0,1-.374.374H3.368a.374.374,0,0,1-.374-.374Zm0,2.994a.374.374,0,0,1,.374-.374H7.11a.374.374,0,0,1,.374.374V7.11a.374.374,0,0,1-.374.374H3.368a.374.374,0,0,1-.374-.374ZM14.969,20.582a.374.374,0,0,1-.374.374H10.853a.374.374,0,0,1-.374-.374v-.748a.374.374,0,0,1,.374-.374h3.742a.374.374,0,0,1,.374.374Zm0-9.356v4.491a.748.748,0,0,1-.748.748H3.742a.748.748,0,0,1-.748-.748V11.227a.748.748,0,0,1,.748-.748H14.221A.748.748,0,0,1,14.969,11.227Z"/></svg>