<svg xmlns="http://www.w3.org/2000/svg" width="32" height="32" viewBox="0 0 32 32"><defs><style>.a{opacity:0;}</style></defs><g transform="translate(-0.009 -0.009)"><rect class="a" width="32" height="32" transform="translate(0.009 0.009)"/><path d="M21.376,8.495a1.338,1.338,0,1,0-2.081,1.681,5.336,5.336,0,0,1,0,6.324,1.338,1.338,0,0,0,2.081,1.681,8,8,0,0,0,0-9.686Z" transform="translate(6.347 2.672)"/><path d="M20.97,3.165a1.334,1.334,0,0,0-1.334,0L11,9.1H4.334A1.334,1.334,0,0,0,3,10.436v9.152a1.334,1.334,0,0,0,1.334,1.334H11l8.552,5.87a1.414,1.414,0,0,0,.787.227,1.334,1.334,0,0,0,1.334-1.334V4.339a1.334,1.334,0,0,0-.707-1.174ZM19.009,23.15l-6.8-4.669a1.334,1.334,0,0,0-.76-.227H5.668V11.77h5.777a1.334,1.334,0,0,0,.76-.227l6.8-4.669Z" transform="translate(1.002 0.998)"/></g></svg>