<svg xmlns="http://www.w3.org/2000/svg" width="32" height="32" viewBox="0 0 32 32"><defs><style>.a{opacity:0;}</style></defs><g transform="translate(-0.301 -0.301)"><rect class="a" width="32" height="32" transform="translate(0.301 0.301)"/><path d="M24.029,27.47,20.891,15.244a8.069,8.069,0,0,0,1.78-5.094,8.15,8.15,0,1,0-16.3,0,8.069,8.069,0,0,0,1.82,5.121L5.011,27.47a1.358,1.358,0,0,0,2.01,1.508l7.24-4.252,7.716,4.265a1.236,1.236,0,0,0,.693.177,1.358,1.358,0,0,0,1.358-1.7ZM14.52,4.717A5.434,5.434,0,1,1,9.087,10.15,5.434,5.434,0,0,1,14.52,4.717Zm.421,17.265a1.358,1.358,0,0,0-1.358,0L8.489,24.971l1.956-7.743a8.069,8.069,0,0,0,8.042,0l2.078,7.865Z" transform="translate(1.78 0.717)"/></g></svg>