<svg xmlns="http://www.w3.org/2000/svg" width="428.385" height="366.801" viewBox="0 0 428.385 366.801"><defs><style>.a{fill:#feebd2;}.b,.d,.i,.j,.o,.x{fill:none;}.b,.d,.e{stroke:#18233d;}.b,.d,.e,.j,.n,.o,.t{stroke-linecap:round;}.b,.d,.e,.i,.j,.n,.o,.t{stroke-miterlimit:10;}.b{stroke-width:0.88px;}.c{fill:#18233d;}.d,.e,.i,.j,.n{stroke-width:1.1px;}.e,.p,.t{fill:#fff;}.f{fill:#febe89;}.g{fill:#85a9ff;}.h,.k{fill:#4873db;}.h{opacity:0.219;}.i,.j,.n{stroke:#fff;}.l,.n{fill:#ffd1ab;}.m{fill:#cf8b54;}.q{fill:#ffb391;}.r{fill:#779cf7;}.s{fill:#58627a;}.u{fill:#0acc94;}.v{fill:#e5e9f3;}.w,.y,.z{stroke:none;}.y{fill:#fff;}.z{fill:#18233d;}</style></defs><g transform="translate(-1.396)"><path class="a" d="M92.07,0H238.456a92.07,92.07,0,0,1,92.07,92.07v92.07a0,0,0,0,1,0,0H92.07A92.07,92.07,0,0,1,0,92.07v0A92.07,92.07,0,0,1,92.07,0Z" transform="translate(39.975 18.738)"/><g transform="translate(260.762 5.393)"><path class="b" d="M22.728,0H74.349A22.728,22.728,0,0,1,97.078,22.728v0A22.728,22.728,0,0,1,74.349,45.457H0a0,0,0,0,1,0,0V22.728A22.728,22.728,0,0,1,22.728,0Z"/><g transform="translate(24.655 18.491)"><ellipse class="c" cx="4.329" cy="4.238" rx="4.329" ry="4.238" transform="translate(0 0)"/><ellipse class="c" cx="4.329" cy="4.238" rx="4.329" ry="4.238" transform="translate(19.17 0)"/><ellipse class="c" cx="4.329" cy="4.238" rx="4.329" ry="4.238" transform="translate(38.34 0)"/></g></g><path class="d" d="M0,.55H380.272" transform="translate(39.975 353.276)"/><g class="e" transform="translate(169.849 43.916)"><rect class="w" width="80.127" height="97.848" rx="6.6"/><rect class="x" x="0.55" y="0.55" width="79.027" height="96.748" rx="6.05"/></g><path class="b" d="M0,.55H45.621" transform="translate(184.555 59.012)"/><path class="b" d="M0,.55H22.508" transform="translate(184.555 66.716)"/><path class="b" d="M0,.55H37.917" transform="translate(184.555 74.421)"/><path class="b" d="M0,.55H14.8" transform="translate(184.555 82.125)"/><path class="b" d="M0,.55H30.212" transform="translate(184.555 89.83)"/><g transform="translate(223.601 22.27)"><g transform="translate(58.734 119.494)"><path class="f" d="M17.134,0,15.363,5.465,0,16.18H15.372A11.557,11.557,0,0,0,26.749,6.652l.988-5.537" transform="translate(4.623 194.155)"/><path class="c" d="M-13.891,1.925l-5.332.849A10.023,10.023,0,0,1-27.849,0h0L-46.2,11.935h0a4.771,4.771,0,0,0,5.158,2.614l16.8-3.089v2.868h6.62A17.828,17.828,0,0,0-13.87,2.269Z" transform="translate(46.2 198.778)"/><path class="g" d="M29.055,0h0a17.68,17.68,0,0,0-5.626,10.848L0,196.466H15.623L61.637,0Z" transform="translate(20.032)"/><path class="h" d="M29.779,0,0,180.287,40.064,12.145Z" transform="translate(35.441 16.18)"/><path class="i" d="M35.441,0,20.447,52.448,0,156.4" transform="translate(33.13 40.064)"/><g transform="translate(98.821 209.463) rotate(-39)"><path class="f" d="M17.242,0,15.46,5.609,0,16.606H15.5A11.557,11.557,0,0,0,26.881,7.04l1.031-5.9" transform="translate(4.253 0)"/><path class="c" d="M32.3,1.922l-5.335.848A10.026,10.026,0,0,1,18.347,0h0L0,11.914H0a4.769,4.769,0,0,0,5.152,2.611l16.8-3.085V14.3h6.619A17.784,17.784,0,0,0,32.323,2.262Z" transform="translate(0 5.436)"/></g><path class="g" d="M0,.8l16.653,94.78a77.046,77.046,0,0,0,4.319,15.208l34.17,85.679,14.97-4.95L43.987,91.483,41.93,28.035A56.531,56.531,0,0,0,33.426,0h0Z" transform="translate(60.096)"/><path class="j" d="M0,0,5.579,18.3a47,47,0,0,1,2.042,13.7V92.374l32.442,96.388" transform="translate(89.373 2.311)"/><path class="k" d="M2.144,4.352C.861,4.329,0,13.868,0,13.868l44.07-2.295A14.955,14.955,0,0,0,55.028,5.908h0L52.061,0S13.006,1.459,2.144,4.352Z" transform="translate(42.82 2.311)"/></g><g transform="translate(0 0)"><g transform="translate(0 87.267)"><path class="l" d="M66.836,19.855,18.975,3.628,1.569.027a1.3,1.3,0,0,0-1.537,1h0a1.415,1.415,0,0,0,.954,1.65l9.123,2.9S8.288,6.718,8.288,7.767,7.041,10.239,7.233,11.4s.469,2.451.762,4.586l7.228,3.539a.83.83,0,0,0,1.066-.3h0a.95.95,0,0,0-.118-1.166L15.63,17.5s4.93,1.521,8.8-.916l34.3,18.445a19.026,19.026,0,0,0,24.657-5.931h0L73.712,18.354Z" transform="translate(0 0)"/><path class="m" d="M18.725,15.386,0,0,7.474,2.86Z" transform="translate(60.58 17.829) rotate(-8)"/><path class="j" d="M0,0,9.642,5.634s1.438,1.323.9,2.47S8.33,8.56,8.33,8.56" transform="translate(7.735 8.916)"/><path class="j" d="M0,0,8.816,5.845A2.351,2.351,0,0,1,9.367,8.1c-.482,1.147-2.024.668-2.024.668" transform="translate(9.52 5.35)"/><path class="n" d="M9.779,0H6.9A6.15,6.15,0,0,0,1.22,3.8L.106,6.5a1.308,1.308,0,0,0,.6,1.659h0a1.42,1.42,0,0,0,1.786-.4L5.61,3.671A21.9,21.9,0,0,0,11.9,7.6" transform="translate(10.708 5.945)"/><path class="j" d="M.477.494,8.152,4.421" transform="translate(7.592 12.927)"/></g><path class="c" d="M46.268,2.139s-12.5,2.428-19.923,5.034S0,42.1,0,42.1L13.461,55.048l8.377-10.312s.958,22.61,9.925,26.917H79.522c5.437-3.729,10.471-35.988,10.471-35.988l12.271,8.914,7.911-21.366S91.148,7.686,87.491,7.173,55.89,0,55.89,0Z" transform="translate(73.373 56.316)"/><g class="o" transform="translate(114.978 56.316)"><path class="w" d="M6.011,0,0,2.783V15.409L7.941,7.742l9.231-.728,10.565,6.564L26.428,2.783,19.658,0Z"/><path class="y" d="M 6.253189086914063 1.099994659423828 L 1.099998474121094 3.486176490783691 L 1.099998474121094 12.81779956817627 L 7.176448822021484 6.950215339660645 L 7.46044921875 6.67597484588623 L 7.854028701782227 6.644925117492676 L 17.08495712280273 5.916584968566895 L 17.44512939453125 5.888165473937988 L 17.75201797485352 6.078845024108887 L 26.3684253692627 11.43253707885742 L 25.41379165649414 3.555583000183105 L 19.4411563873291 1.099994659423828 L 6.253189086914063 1.099994659423828 M 6.010868072509766 -4.76837158203125e-06 L 19.6584587097168 -4.76837158203125e-06 L 26.42824935913086 2.7833251953125 L 27.7364387512207 13.57757472991943 L 17.17147827148438 7.013175010681152 L 7.940547943115234 7.741515159606934 L -1.9073486328125e-06 15.40912532806396 L -1.9073486328125e-06 2.7833251953125 L 6.010868072509766 -4.76837158203125e-06 Z"/></g><g class="j" transform="translate(124.994 60.939)"><rect class="w" width="5.393" height="20.802"/><rect class="x" x="0.55" y="0.55" width="4.293" height="19.702"/></g><path class="g" d="M9.013.579c-1.769-1.736-3.99.748-6.4,3.246S-1.2,6.1,1.371,8.742,12.2,24.112,14.191,22.948s2.74-5.685,4.17-5.686,3.653-.411,1.433-4.352S10.782,2.316,9.013.579Z" transform="translate(65.686 100.176) rotate(-14)"/><path class="g" d="M1.479,23.644s6.247,9.772,15.769,8.588S27.316,10.76,22.863,6.973,11.57-3.035,4.621,1.717,1.479,23.644,1.479,23.644Z" transform="translate(171.09 75.578)"/><g transform="matrix(0.995, 0.105, -0.105, 0.995, 181.043, 0)"><path class="l" d="M23.361,88.434c0,7.244-1.614,16.32-9.044,16.32S3.017,91.807,4.952,75.688,10.485,33.3,10.485,33.3l-.182-.213A42.236,42.236,0,0,1,2.352,18.993h0L.166,15.509a1.088,1.088,0,0,1,.24-1.426h0a1.394,1.394,0,0,1,1.585-.112l1.065.632a10.4,10.4,0,0,1,3.172,2.926l2.165,3.054L6.659,4.186A1.488,1.488,0,0,1,7.842,2.571h0A1.371,1.371,0,0,1,9.454,3.622L12,15.284l.991-13.863A1.53,1.53,0,0,1,14.514,0h0a1.507,1.507,0,0,1,1.5,1.423l.774,13.862,2.89-10.633a1.451,1.451,0,0,1,1.723-1.034h0A1.463,1.463,0,0,1,22.521,5.3l-2.006,11.35L22.926,11a1.277,1.277,0,0,1,1.505-.732h0a1.138,1.138,0,0,1,.812,1.365l-3.059,12.77L20.86,32.77S23.361,81.19,23.361,88.434Z" transform="translate(0 0)"/><path class="j" d="M0,0S7.4,3.8,7.4,6.818" transform="translate(8.63 19.835)"/><path class="j" d="M11.1,1.807A17.841,17.841,0,0,0,0,.253" transform="translate(10.48 14.929)"/></g><g transform="translate(113.622 8.667)"><path class="l" d="M1.51,2.284a42.554,42.554,0,0,1,.935,14.273C1.51,23.656,1.51,26.408,0,27.543c0,0,5.683,6.253,11.313,6.253s10.81-6.253,10.81-6.253S18.8,26.019,18.8,17.931,19.249,0,19.249,0Z" transform="translate(3.837 24.068)"/><path class="c" d="M2.985,25.188c-3.89-6.139-5.1-17.715,3.373-20.266.575-8.728,19.852-4.955,22.3,4.345S26.069,31.734,18.97,33.31,6.875,31.327,2.985,25.188Z" transform="translate(0 0)"/><path class="m" d="M16.714,0a103.448,103.448,0,0,0-.471,12.473,40.937,40.937,0,0,0,.471,4.5S1.532,9.694.242,6.736A41.562,41.562,0,0,0,0,1.04Z" transform="translate(6.358 29.823)"/><path class="l" d="M4.3,8.7C6.627,7.322,7.29,4.605,8.844,0c4.016,6.519,7.842,7.069,14.408,8.689-.427,11.8.739,1.119,1.93,1.251a2.592,2.592,0,0,1,.765-.115,2.784,2.784,0,0,1,2.713,2.85,2.784,2.784,0,0,1-2.713,2.85,2.631,2.631,0,0,1-1.816-.733c-2.2,6.683-6.82,15.26-12.011,14.458Q6.49,28.381,3.284,14.6a2.6,2.6,0,0,1-.571.063A2.784,2.784,0,0,1,0,11.809a2.784,2.784,0,0,1,2.713-2.85c.106,0,.083,4.584.571,4.408S4.3,8.7,4.3,8.7Z" transform="translate(0.821 9.266)"/><path class="d" d="M1.508,0C2.04,2.063,0,7.534,0,7.534l2.143.778" transform="translate(12.038 20.313)"/><path class="d" d="M0,.522A5.116,5.116,0,0,1,4.812.964" transform="translate(16.564 17.468)"/><path class="d" d="M0,.41A5.118,5.118,0,0,1,4.812.841" transform="matrix(0.995, -0.105, 0.105, 0.995, 6.827, 17.827)"/><ellipse class="c" cx="0.754" cy="0.771" rx="0.754" ry="0.771" transform="translate(17.182 19.548)"/><ellipse class="c" cx="0.754" cy="0.771" rx="0.754" ry="0.771" transform="translate(8.132 19.548)"/><path class="p" d="M0,.356,4.6,0S3.948,2.367,2.3,2.367,0,.356,0,.356Z" transform="translate(11.379 30.344)"/><path class="d" d="M0,.514,1.508,0" transform="translate(25.96 22.118)"/><path class="d" d="M-.645.514-2.154,0" transform="translate(4.483 21.09)"/><path class="j" d="M0,0A19.562,19.562,0,0,0,12.57,8.74" transform="translate(12.385 7.724)"/></g></g></g><g transform="translate(55.402 57.862)"><path class="q" d="M0,36.373l37.822-27.1a44.921,44.921,0,0,1,7.7-6.3c1.649-1.042,6.291-.991,6.291-.991L58.249.042a.99.99,0,0,1,1.114.406h0a.636.636,0,0,1-.268.926l-7.28,3.319L58.1,2.975l5.148-.821A1.606,1.606,0,0,1,64.87,2.9h0a.845.845,0,0,1-.462,1.245l-5.45,1.749L54.392,7.36,61.362,6.2l5.721-1.971a1.274,1.274,0,0,1,1.616.78h0a1.374,1.374,0,0,1-.73,1.711L62.305,9.277,44.322,14.384s-26.068,26.943-34.291,33.8Z" transform="translate(94.361 66.211)"/><path class="r" d="M3.792,0S16.218,3.761,28.611,21.015,43,41.4,43,41.4l4.087-6.062L61.013,46.528S44.766,60.79,38.542,57.763c-8.727-4.245-15.072-12.492-25.4-26.208C8.027,24.76,4.084,20.178,2.03,15.722-3.4,3.927,3.792,0,3.792,0Z" transform="matrix(0.966, 0.259, -0.259, 0.966, 62.515, 52.929)"/><g transform="translate(0 285.964) rotate(-60)"><path class="q" d="M3.214,0,1.922,4.719a54.082,54.082,0,0,0,.657,30.79l2.707,8.448A77.046,77.046,0,0,1,8.369,57.944l2.9,23.3-.488,3.524a6.164,6.164,0,0,0,6.457,7l20.528-1.172-7.991-2.944A14.639,14.639,0,0,1,20.2,73.6L21.732,1.272Z" transform="translate(91.207 0) rotate(81)"/><path class="m" d="M5.032,0l7.092,19.987L0,21.645Z" transform="translate(81.486 1.479)"/><path class="c" d="M.386,0,12.3,3.6a1.43,1.43,0,0,0,1.229-2.543h0l8.556,3.584,5.282,2.419h0a3.755,3.755,0,0,1-4.4,3.341L9.344,7.975l0,2.4-5.727,0h0A9.867,9.867,0,0,1,.369.058Z" transform="translate(10.335 23.344) rotate(81)"/></g><g transform="matrix(0.07, -0.998, 0.998, 0.07, 61.357, 303.36)"><path class="q" d="M3.214,0,1.922,4.719a54.082,54.082,0,0,0,.657,30.79l2.707,8.448A77.046,77.046,0,0,1,8.369,57.944l2.9,23.3-.488,3.524a6.164,6.164,0,0,0,6.457,7l20.528-1.172-7.991-2.944A14.639,14.639,0,0,1,20.2,73.6L21.732,1.272Z" transform="translate(91.207 0) rotate(81)"/><path class="m" d="M5.032,0l7.092,19.987L0,21.645Z" transform="translate(81.289 1.195)"/><path class="c" d="M.386,0,12.3,3.6a1.43,1.43,0,0,0,1.229-2.543h0l8.556,3.584,5.282,2.419h0a3.755,3.755,0,0,1-4.4,3.341L9.344,7.975l0,2.4-5.727,0h0A9.867,9.867,0,0,1,.369.058Z" transform="translate(10.335 23.344) rotate(81)"/></g><path class="c" d="M5.815,1.09s-8.42,8.336-4.458,42.761S7.7,97.966,7.7,97.966,18.827,101.7,28.028,101.7s32.724-3.734,32.724-3.734l-4-78.632A56.306,56.306,0,0,0,52.26,0h0Z" transform="translate(30.197 117.789)"/><path class="g" d="M22.145.742S0,9.08,0,17.758,11.072,50,11.072,50,8.386,68.552,8.386,72.116s36.337,6.077,49.023-2.826c5.553-3.409-2.069-20.113-2.069-31.229,4.364-5.115,4.013-10.2-3.41-23.39C48.906,9.3,46.409,3.038,42.119.764,39.389-.684,32,.742,32,.742Z" transform="translate(23.175 52.378)"/><path class="j" d="M4.91,1.3,0,3.352,9.586,18.89,16.141,7.323l11.7,4.009L22.093,0Z" transform="translate(39.666 51.553)"/><g transform="translate(27.91 0)"><path class="c" d="M1.573,48.924S-3.171,14.321,3.819,5.8,24.7.659,24.7.659s5.1-1.12,7.752,1.467,3.851,8.507-1.871,12.847c-2.95,2.238,2.7,18.822,6.952,28.534C35.257,47.14,1.573,48.924,1.573,48.924Z" transform="translate(5.962 0) rotate(7)"/><path class="q" d="M4.981,0S7.929,21.487,0,25.675l19.941,7.956,1.973-9.765c-3.285-7.05-5.053-22.1-5.053-22.1Z" transform="translate(12.569 29.254)"/><path class="m" d="M0,2.537,10.761,0l.123.063L12.8,13.807C8.756,11.554,2.662,7.528,0,2.537Z" transform="translate(17.942 26.624)"/><path class="q" d="M28.344,3.326s5.6,21.174-.917,24.382S8.815,21.437,7.373,20.1c0,0-4.67,1.6-6.4-1.042s-1.5-5.782,3.643-5.782S20.916,7.611,22.049.5C25.985-1.2,28.344,3.326,28.344,3.326Z" transform="translate(9.989 9.741)"/><path class="d" d="M2.379,0S-1.449.985,1.041,5.148c1.742,2.7,3.437,5.477,3.437,5.477H1.909" transform="translate(34.673 15.974)"/><path class="d" d="M0,0,4.419.885" transform="translate(11.756 26.598)"/><path class="d" d="M0,.759S2.89-.653,4.81.375" transform="translate(25.489 18.426) rotate(-16)"/><ellipse class="c" cx="0.884" cy="0.885" rx="0.884" ry="0.885" transform="translate(29.431 19.515)"/><ellipse class="c" cx="0.884" cy="0.885" rx="0.884" ry="0.885" transform="translate(36.5 17.744)"/><path class="p" d="M0,0H4.419A1.877,1.877,0,0,1,2.533,1.771,3,3,0,0,1,0,0Z" transform="translate(33.849 30.139)"/></g><path class="s" d="M1.211,3.037C.81,2.052.4,1.035,0,0,4.79.781,23.21,3.769,24.648,3.769c.926,0,14.842,4.46,26.918,8.387,1.185,5.776,2.761,11.635,2.8,15.823A49.093,49.093,0,0,1,40.9,30.6c-.377.022-.752.033-1.129.033C23.748,30.627,7.2,10.935,1.211,3.037Z" transform="translate(28.244 88.322)"/><path class="q" d="M0,50.723,31.288,22.9,40.9,9.028,48.231.509A1.462,1.462,0,0,1,50.288.351h0a1.7,1.7,0,0,1,.343,2.184L43.928,13.4s3.689-.788,4.08,2.756,2.329,1.985,2.329,5.056.757,3.957-1.156,5.2S39.17,31.566,39.17,31.566L12.223,61.455Z" transform="translate(82.457 37.222)"/><path class="g" d="M1.182,2.414c-2.72,5.414-3.137,21.84,26.094,39.1S76.856,30.4,76.856,30.4L62.452,18.92,49.251,30.4S31.119,16.247,22.009,8.81,3.9-3,1.182,2.414Z" transform="translate(21.992 65.625)"/><path class="j" d="M9.259,0,1.14,5.3,0,11.259" transform="translate(66.365 91.401)"/><path class="j" d="M31.494,26.587C29.87,25.082,0,0,0,0" transform="translate(36.011 70.444)"/></g><g transform="translate(310.072 216.498) rotate(180)"><g class="t" transform="translate(0 0)"><path class="w" d="M 27.37629127502441 43.00731658935547 L 22.80684661865234 43.00731658935547 L 22.80684661865234 36.29931640625 L 22.80684661865234 35.74931716918945 L 22.25684547424316 35.74931716918945 L 18.14965629577637 35.74931716918945 C 13.44861602783203 35.74931716918945 9.028955459594727 33.91863632202148 5.704825878143311 30.59449768066406 C 2.380685806274414 27.27035713195801 0.5500057339668274 22.85069847106934 0.5500057339668274 18.149658203125 C 0.5500057339668274 13.44861793518066 2.380685806274414 9.028958320617676 5.704825878143311 5.704817771911621 C 9.028955459594727 2.380677938461304 13.44861602783203 0.5499979257583618 18.14965629577637 0.5499979257583618 L 56.08215713500977 0.5499979257583618 C 60.78319549560547 0.5499979257583618 65.20285797119141 2.380677938461304 68.52699279785156 5.704817771911621 C 71.85113525390625 9.028958320617676 73.68181610107422 13.44861793518066 73.68181610107422 18.149658203125 C 73.68181610107422 22.85069847106934 71.85113525390625 27.27035713195801 68.52699279785156 30.59449768066406 C 65.20285797119141 33.91863632202148 60.78319549560547 35.74931716918945 56.08215713500977 35.74931716918945 L 33.13517761230469 35.74931716918945 L 32.86143493652344 35.74931716918945 L 32.69638442993164 35.96770858764648 L 27.37629127502441 43.00731658935547 Z"/><path class="z" d="M 18.149658203125 1.099998474121094 C 13.59552764892578 1.099998474121094 9.313980102539063 2.873470306396484 6.093727111816406 6.093727111816406 C 2.87347412109375 9.313987731933594 1.099998474121094 13.59552764892578 1.099998474121094 18.149658203125 C 1.099998474121094 22.70378684997559 2.87347412109375 26.98532867431641 6.093727111816406 30.20558738708496 C 9.313980102539063 33.42584609985352 13.59552764892578 35.19931793212891 18.149658203125 35.19931793212891 L 22.2568473815918 35.19931793212891 L 23.35684585571289 35.19931793212891 L 23.35684585571289 36.29931640625 L 23.35684585571289 42.45731735229492 L 27.10254669189453 42.45731735229492 L 32.25759887695313 35.63609313964844 L 32.58769226074219 35.19931793212891 L 33.13517761230469 35.19931793212891 L 56.0821533203125 35.19931793212891 C 60.63628387451172 35.19931793212891 64.91782379150391 33.42584609985352 68.13808441162109 30.20558738708496 C 71.35833740234375 26.98532867431641 73.13181304931641 22.70378684997559 73.13181304931641 18.149658203125 C 73.13181304931641 13.59552764892578 71.35833740234375 9.313987731933594 68.13808441162109 6.093727111816406 C 64.91782379150391 2.873470306396484 60.63628387451172 1.099998474121094 56.0821533203125 1.099998474121094 L 18.149658203125 1.099998474121094 M 18.149658203125 0 L 56.0821533203125 0 C 66.10592651367188 0 74.2318115234375 8.125881195068359 74.2318115234375 18.149658203125 C 74.2318115234375 28.17343521118164 66.10592651367188 36.29931640625 56.0821533203125 36.29931640625 L 33.13517761230469 36.29931640625 L 27.6500358581543 43.55731582641602 L 22.2568473815918 43.55731582641602 L 22.2568473815918 36.29931640625 L 18.149658203125 36.29931640625 C 8.125869750976563 36.29931640625 0 28.17343521118164 0 18.149658203125 C 0 8.125881195068359 8.125869750976563 0 18.149658203125 0 Z"/></g><path class="u" d="M74.232,18.15A18.15,18.15,0,0,0,56.082,0H18.15A18.15,18.15,0,0,0,0,18.15H0A18.15,18.15,0,0,0,18.15,36.3h4.107v7.258L33.135,36.3H56.082A18.15,18.15,0,0,0,74.232,18.15Z" transform="translate(5.393 0)"/><g transform="translate(23.819 12.152)"><path class="j" d="M0,0H37.72" transform="translate(0 0)"/><path class="j" d="M0,0H22.311" transform="translate(0 5.393)"/><path class="j" d="M0,0H30.015" transform="translate(0 10.786)"/></g></g><g transform="translate(45.035 0)"><g class="t" transform="translate(0 0)"><path class="w" d="M 56.21625900268555 43.00731658935547 L 52.14160537719727 43.00731658935547 L 41.40188598632813 35.841796875 L 41.26327514648438 35.74931716918945 L 41.09663391113281 35.74931716918945 L 18.14965629577637 35.74931716918945 C 13.44861602783203 35.74931716918945 9.028955459594727 33.91863632202148 5.704825878143311 30.59449768066406 C 2.380685806274414 27.27035713195801 0.5500057339668274 22.85069847106934 0.5500057339668274 18.149658203125 C 0.5500057339668274 13.44861793518066 2.380685806274414 9.028958320617676 5.704825878143311 5.704817771911621 C 9.028955459594727 2.380677938461304 13.44861602783203 0.5499979257583618 18.14965629577637 0.5499979257583618 L 56.08215713500977 0.5499979257583618 C 60.78319549560547 0.5499979257583618 65.20285797119141 2.380677938461304 68.52699279785156 5.704817771911621 C 71.85113525390625 9.028958320617676 73.68181610107422 13.44861793518066 73.68181610107422 18.149658203125 C 73.68181610107422 22.85069847106934 71.85113525390625 27.27035713195801 68.52699279785156 30.59449768066406 C 65.20285797119141 33.91863632202148 60.78319549560547 35.74931716918945 56.08215713500977 35.74931716918945 L 51.9749641418457 35.74931716918945 L 50.8890266418457 35.74931716918945 L 51.53157424926758 36.62475967407227 L 56.21625900268555 43.00731658935547 Z"/><path class="z" d="M 18.149658203125 1.099998474121094 C 13.59552764892578 1.099998474121094 9.313980102539063 2.873470306396484 6.093727111816406 6.093727111816406 C 2.87347412109375 9.313987731933594 1.099998474121094 13.59552764892578 1.099998474121094 18.149658203125 C 1.099998474121094 22.70378684997559 2.87347412109375 26.98532867431641 6.093727111816406 30.20558738708496 C 9.313980102539063 33.42584609985352 13.59552764892578 35.19931793212891 18.149658203125 35.19931793212891 L 41.09663391113281 35.19931793212891 L 41.42990493774414 35.19931793212891 L 41.7071418762207 35.38428115844727 L 52.30824279785156 42.45731735229492 L 55.13031768798828 42.45731735229492 L 51.08818817138672 36.95018768310547 L 49.80308151245117 35.19931793212891 L 51.9749641418457 35.19931793212891 L 56.0821533203125 35.19931793212891 C 60.63628387451172 35.19931793212891 64.91782379150391 33.42584609985352 68.13808441162109 30.20558738708496 C 71.35833740234375 26.98532867431641 73.13181304931641 22.70378684997559 73.13181304931641 18.149658203125 C 73.13181304931641 13.59552764892578 71.35833740234375 9.313987731933594 68.13808441162109 6.093727111816406 C 64.91782379150391 2.873470306396484 60.63628387451172 1.099998474121094 56.0821533203125 1.099998474121094 L 18.149658203125 1.099998474121094 M 18.149658203125 0 L 56.0821533203125 0 C 66.10592651367188 0 74.2318115234375 8.125881195068359 74.2318115234375 18.149658203125 C 74.2318115234375 28.17343521118164 66.10592651367188 36.29931640625 56.0821533203125 36.29931640625 L 51.9749641418457 36.29931640625 L 57.30220031738281 43.55731582641602 L 51.9749641418457 43.55731582641602 L 41.09663391113281 36.29931640625 L 18.149658203125 36.29931640625 C 8.125869750976563 36.29931640625 0 28.17343521118164 0 18.149658203125 C 0 8.125881195068359 8.125869750976563 0 18.149658203125 0 Z"/></g><g class="t" transform="translate(5.393 0)"><path class="w" d="M 51.42496490478516 42.52917861938477 L 41.40188598632813 35.841796875 L 41.26327514648438 35.74931716918945 L 41.09663391113281 35.74931716918945 L 18.14965629577637 35.74931716918945 C 13.44861602783203 35.74931716918945 9.028955459594727 33.91863632202148 5.704825878143311 30.59449768066406 C 2.380685806274414 27.27035713195801 0.5500057339668274 22.85069847106934 0.5500057339668274 18.149658203125 C 0.5500057339668274 13.44861793518066 2.380685806274414 9.028958320617676 5.704825878143311 5.704817771911621 C 9.028955459594727 2.380677938461304 13.44861602783203 0.5499979257583618 18.14965629577637 0.5499979257583618 L 56.08215713500977 0.5499979257583618 C 60.78319549560547 0.5499979257583618 65.20285797119141 2.380677938461304 68.52699279785156 5.704817771911621 C 71.85113525390625 9.028958320617676 73.68181610107422 13.44861793518066 73.68181610107422 18.149658203125 C 73.68181610107422 22.85069847106934 71.85113525390625 27.27035713195801 68.52699279785156 30.59449768066406 C 65.20285797119141 33.91863632202148 60.78319549560547 35.74931716918945 56.08215713500977 35.74931716918945 L 51.9749641418457 35.74931716918945 L 51.42496490478516 35.74931716918945 L 51.42496490478516 36.29931640625 L 51.42496490478516 42.52917861938477 Z"/><path class="z" d="M 18.149658203125 1.099998474121094 C 13.59552764892578 1.099998474121094 9.313980102539063 2.873470306396484 6.093727111816406 6.093727111816406 C 2.87347412109375 9.313987731933594 1.099998474121094 13.59552764892578 1.099998474121094 18.149658203125 C 1.099998474121094 22.70378684997559 2.87347412109375 26.98532867431641 6.093727111816406 30.20558738708496 C 9.313980102539063 33.42584609985352 13.59552764892578 35.19931793212891 18.149658203125 35.19931793212891 L 41.09663391113281 35.19931793212891 L 41.42990493774414 35.19931793212891 L 41.7071418762207 35.38428115844727 L 50.87496185302734 41.50103378295898 L 50.87496185302734 36.29931640625 L 50.87496185302734 35.19931793212891 L 51.9749641418457 35.19931793212891 L 56.0821533203125 35.19931793212891 C 60.63628387451172 35.19931793212891 64.91782379150391 33.42584609985352 68.13808441162109 30.20558738708496 C 71.35833740234375 26.98532867431641 73.13181304931641 22.70378684997559 73.13181304931641 18.149658203125 C 73.13181304931641 13.59552764892578 71.35833740234375 9.313987731933594 68.13808441162109 6.093727111816406 C 64.91782379150391 2.873470306396484 60.63628387451172 1.099998474121094 56.0821533203125 1.099998474121094 L 18.149658203125 1.099998474121094 M 18.149658203125 0 L 56.0821533203125 0 C 66.10592651367188 0 74.2318115234375 8.125881195068359 74.2318115234375 18.149658203125 C 74.2318115234375 28.17343521118164 66.10592651367188 36.29931640625 56.0821533203125 36.29931640625 L 51.9749641418457 36.29931640625 L 51.9749641418457 43.55731582641602 L 41.09663391113281 36.29931640625 L 18.149658203125 36.29931640625 C 8.125869750976563 36.29931640625 0 28.17343521118164 0 18.149658203125 C 0 8.125881195068359 8.125869750976563 0 18.149658203125 0 Z"/></g><g transform="translate(20.491 11.717)"><path class="d" d="M0,.55H37.72" transform="translate(0 -0.55)"/><path class="d" d="M0,.55H22.311" transform="translate(0 4.843)"/><path class="d" d="M0,.55H30.015" transform="translate(0 10.236)"/></g></g><g transform="translate(1.396 128.218)"><path class="v" d="M8.026,26.171C3.6,26.166.01,20.3,0,13.075S3.569-.006,7.992,0s8.017,5.869,8.026,13.1S12.45,26.177,8.026,26.171Z" transform="translate(38.482 0) rotate(13)"/><path class="d" d="M-14.891,0l-9.781,38.508L-7.392,223.084" transform="translate(61.462 2.048)"/><path class="s" d="M-15.233,18.316-12.477,0H-41.648L-35.1,18.316Z" transform="translate(78.437 208.061)"/><path class="v" d="M11.8,38.619C5.254,38.636-.027,30,0,19.34S5.353.017,11.894,0s11.823,8.615,11.8,19.279S18.338,38.6,11.8,38.619Z" transform="matrix(0.875, -0.485, 0.485, 0.875, 0, 30.802)"/><path class="d" d="M-12.858,47.628-42.919,0" transform="translate(52.243 26.243)"/><path class="v" d="M11.869,38.652C5.333,38.64.019,29.978,0,19.3S5.265-.012,11.8,0,23.651,8.674,23.67,19.347,18.405,38.664,11.869,38.652Z" transform="matrix(0.951, 0.309, -0.309, 0.951, 60.677, 117.47)"/><ellipse class="v" cx="11.83" cy="19.334" rx="11.83" ry="19.334" transform="matrix(0.985, 0.174, -0.174, 0.985, 39.925, 51.18)"/><path class="v" d="M11.8,38.636C5.258,38.65-.024,30.013,0,19.344S5.344.015,11.883,0,23.7,8.622,23.68,19.291,18.336,38.621,11.8,38.636Z" transform="matrix(0.914, -0.407, 0.407, 0.914, 9.274, 113.223)"/><path class="d" d="M-3.513,0l-8.214,57.6" transform="translate(55.069 53.231)"/><path class="d" d="M-12.189,54.959-40.685,0" transform="translate(60.407 109.199)"/><path class="d" d="M-29.046,72.893-8.7,0" transform="translate(80.602 122.307)"/></g></g></svg>