<svg xmlns="http://www.w3.org/2000/svg" xmlns:xlink="http://www.w3.org/1999/xlink" width="580.989" height="484.266" viewBox="0 0 580.989 484.266"><defs><style>.a,.ab,.ag,.ai,.aj,.ak,.am,.b,.w,.y{fill:none;}.b{stroke:#e9f5ff;stroke-linecap:round;stroke-width:111px;}.ab,.ag,.ai,.aj,.ak,.am,.b,.w,.y{stroke-miterlimit:10;}.c{fill:#fff;}.d{fill:#282f48;}.e{fill:#6882e0;}.f{fill:#333a56;}.g{fill:#1be3b3;}.h{fill:#1ec19a;}.i{fill:#5fffd8;}.j{fill:#ffe071;}.k{fill:#d0b03d;}.l{fill:#fcebb1;}.m{fill:#0b86df;}.n{fill:#0a70ba;}.o{fill:#54b7ff;}.p{fill:#ff9330;}.q{fill:#49547b;}.r{clip-path:url(#a);}.s{clip-path:url(#c);}.t{clip-path:url(#e);}.u{fill:#ffae64;}.v{fill:#2c2770;}.ag,.w{stroke:#fff;}.w,.y{stroke-width:0.709px;}.x{fill:#ffba5f;}.ak,.y{stroke:#000;}.z{fill:#ff8282;}.aa{clip-path:url(#g);}.ab{stroke:#ffe071;stroke-width:2.128px;}.ac{clip-path:url(#h);}.ad{fill:#a84223;}.ae{fill:#dae2ff;}.af{fill:#6b8cff;}.ag,.ak,.am{stroke-width:0.682px;}.ah{clip-path:url(#i);}.ai,.aj{stroke:#d7be67;}.ai{stroke-width:3.411px;}.aj{stroke-width:2.046px;}.al{clip-path:url(#j);}.am{stroke:#7268f5;}</style><clipPath id="a"><path class="a" d="M12.686,25.569h0A12.65,12.65,0,0,1,1.671,19.116,12.765,12.765,0,0,1,12.674,0,12.657,12.657,0,0,1,23.689,6.453a12.766,12.766,0,0,1-11,19.116ZM12.674,4.384a8.409,8.409,0,0,0-2.2,16.5A8.3,8.3,0,0,0,20.712,15,8.421,8.421,0,0,0,14.877,4.684,8.292,8.292,0,0,0,12.674,4.384Z" transform="translate(0 0)"/></clipPath><clipPath id="c"><path class="a" d="M12.683,25.568h0A12.651,12.651,0,0,1,1.671,19.116,12.763,12.763,0,0,1,12.671,0,12.65,12.65,0,0,1,23.685,6.453a12.765,12.765,0,0,1-11,19.116Zm-.01-21.185a8.408,8.408,0,0,0-2.194,16.5A8.3,8.3,0,0,0,20.712,15,8.422,8.422,0,0,0,14.877,4.684,8.293,8.293,0,0,0,12.673,4.383Z" transform="translate(0 0)"/></clipPath><clipPath id="e"><path class="a" d="M12.683,25.57A12.658,12.658,0,0,1,1.67,19.116a12.793,12.793,0,0,1-1.215-9.7A12.633,12.633,0,0,1,23.686,6.453,12.793,12.793,0,0,1,24.9,16.158a12.7,12.7,0,0,1-12.217,9.411h0Zm-.01-21.186a8.408,8.408,0,0,0-2.193,16.5A8.294,8.294,0,0,0,20.711,15,8.418,8.418,0,0,0,14.875,4.684,8.281,8.281,0,0,0,12.673,4.384Z" transform="translate(0 0)"/></clipPath><clipPath id="g"><path class="a" d="M9.568,15.057,19.891,8.509,40.623,1.9a40.113,40.113,0,0,1,27.093.975L80.083,7.821,78.726,28.979l-15.968-5.12,1.51,9.731,7.791,17.133a4.578,4.578,0,0,1-2.88,6.286L29.254,68.738a4.581,4.581,0,0,1-5.729-3.256L18.579,46.2l-1.54,8.919L1.646,56.606.051,33.892A20.6,20.6,0,0,1,9.568,15.057Z"/></clipPath><clipPath id="h"><path class="a" d="M4,14.979C4.215,12.128,1.423,3.97,0,.248,4.937-.4,15.083-.178,16.176,5.877s3.7,6.825,4.866,6.452c2.148,2.331,4.824,7.858-1.646,11.313s-14.138-.71-17.162-3.226A10.7,10.7,0,0,0,4,14.979Z" transform="translate(0 0)"/></clipPath><clipPath id="i"><path class="a" d="M64.807,10.969,57.866,6.917,40.749,1.684a38.523,38.523,0,0,0-22-.158L0,6.964,1.55,27.3l15.294-5.112L15.5,31.564,8.216,48.136a4.409,4.409,0,0,0,2.841,6.013L48.513,64.662a4.4,4.4,0,0,0,5.593-4.13l.274-10.891,5.189-6.489,1.582,8.561,14.818,1.252L74.613,27.049A19.829,19.829,0,0,0,64.807,10.969Z" transform="translate(0 0)"/></clipPath><clipPath id="j"><path class="a" d="M8.426,4.556,7.748,6.773c-.912-.548-2.865-1.2-3.414.574-.67,2.217.355,4.147,2.058,3.859-.517,2.362-.662,7.287,2.437,10.309a18.352,18.352,0,0,1-3.261,5.6A7.758,7.758,0,0,1,0,29.454c.952,2.176,4.035,6.889,8.765,8.335S18.2,36.9,19.951,35.554a13.624,13.624,0,0,1-3.527-4.311c-.968-1.823-.218-5.223.589-7.633,3.7-1.127,5.908-4.983,7.11-6.981.912.548,2.913,1.052,3.632-1.313a2.331,2.331,0,0,0-2.276-3.12l.678-2.217A14.116,14.116,0,0,1,17.965,5.05C15.14,1.6,14.592.246,14.664,0a7.986,7.986,0,0,1-2.833,3.982A5.309,5.309,0,0,1,8.426,4.556Z"/></clipPath></defs><g transform="translate(-695.577 -221.254)"><path class="b" d="M0,343.277S25.306,216.839,88.1,216.839s39.494,66.673,105.034,66.673C269.8,283.512,236.53,0,353.152,0S459.927,267.28,459.927,267.28" transform="translate(760.89 276.754)"/><rect class="c" width="255.282" height="255.282" rx="45.019" transform="translate(828.887 415.299) rotate(-30)"/><path class="d" d="M25.25,12.867A16.984,16.984,0,0,1,45.95.547L196.979,39.814A17.16,17.16,0,0,1,209.2,60.691l-24.712,96.669a16.981,16.981,0,0,1-20.7,12.32L12.758,130.414A17.154,17.154,0,0,1,.542,109.536Z" transform="translate(888.907 395.871)"/><path class="e" d="M25.25,12.867A16.985,16.985,0,0,1,45.95.547L196.977,39.814A17.154,17.154,0,0,1,209.2,60.691l-24.7,96.669a16.988,16.988,0,0,1-20.7,12.32L12.758,130.414A17.154,17.154,0,0,1,.542,109.536Z" transform="translate(886.69 391.829)"/><path class="d" d="M24.036,8.7A11.56,11.56,0,0,1,38.145.375L178.377,36.834a11.557,11.557,0,0,1,8.289,14.051l-23.671,92.624a11.557,11.557,0,0,1-14.107,8.326L8.654,115.376A11.56,11.56,0,0,1,.363,101.325Z" transform="translate(898.043 400.839)"/><path class="f" d="M.176,71.741,0,71.672C88.3,82.283,155.988,27.981,179.659,0h.589a10.278,10.278,0,0,1,.541,6.711l-24.309,95.105a10.2,10.2,0,0,1-10.653,7.689Z" transform="translate(904.225 443.819)"/><path class="g" d="M0,0,18.425,3.257l-.759,55.369L0,54.6Z" transform="translate(945.296 396.527)"/><path class="h" d="M.759,11.687,10.258,0V42.916L0,67.056Z" transform="translate(962.962 388.097)"/><path class="i" d="M18.425,14.752,0,11.495,9.878,0,27.924,3.065Z" transform="translate(945.296 385.031)"/><path class="j" d="M0,0,18.425,3.257,17.667,43.3,0,39.276Z" transform="translate(986.327 423.734)"/><path class="k" d="M.759,11.687,10.258,0V27.589L0,51.729Z" transform="translate(1003.993 415.302)"/><path class="l" d="M18.425,14.752,0,11.495,9.878,0,27.924,3.065Z" transform="translate(986.327 412.238)"/><path class="m" d="M0,0,18.425,3.257l-.759,89.855L0,89.088Z" transform="translate(1030.78 385.031)"/><path class="n" d="M.759,11.687,10.258,0V77.594L0,101.734Z" transform="translate(1048.446 376.41)"/><path class="o" d="M18.425,14.752,0,11.495,9.878,0,27.924,3.065Z" transform="translate(1030.78 373.537)"/><path class="p" d="M199.773,6.7l-.186,1.475a1.521,1.521,0,0,0,2.034,1.629l6.352-2.387a1.538,1.538,0,0,0,.42-2.631L202.9.34a1.519,1.519,0,0,0-2.462,1l-.194,1.55c-11.581-.723-20.015,5.861-27.263,14.441-3.575,4.229-6.949,9.043-10.314,13.844l-.355.51c-3.5,5-7.013,9.978-10.839,14.447-7.619,8.9-16.868,15.617-28.586,16.295-11.743.678-26.472-4.676-45.091-21.084C62.225,27.614,45.963,26.268,32.057,30.234,18.263,34.167,6.827,43.3.478,50.521a1.927,1.927,0,0,0,.161,2.7,1.888,1.888,0,0,0,2.682-.163c6-6.825,16.843-15.455,29.769-19.141C45.9,30.268,60.8,31.445,75.307,44.23c18.99,16.738,34.655,22.783,47.8,22.024,13.163-.76,23.292-8.319,31.249-17.617,3.963-4.631,7.57-9.759,11.065-14.74l.315-.448c3.4-4.851,6.674-9.538,10.137-13.631C182.808,11.616,190.112,6.2,199.773,6.7Z" transform="translate(914.522 376.83)"/><path class="q" d="M8.408,5.242a6.8,6.8,0,0,1,8.3-5.025l127.376,33.02A6.86,6.86,0,0,1,149,41.495l-8.216,34.154a6.793,6.793,0,0,1-8.3,5.025L5.107,47.653A6.862,6.862,0,0,1,.193,39.4Z" transform="translate(911.731 458.198)"/><g transform="translate(992.74 490.026)"><path class="a" d="M12.686,25.569h0A12.65,12.65,0,0,1,1.671,19.116,12.765,12.765,0,0,1,12.674,0,12.657,12.657,0,0,1,23.689,6.453a12.766,12.766,0,0,1-11,19.116ZM12.674,4.384a8.409,8.409,0,0,0-2.2,16.5A8.3,8.3,0,0,0,20.712,15,8.421,8.421,0,0,0,14.877,4.684,8.292,8.292,0,0,0,12.674,4.384Z" transform="translate(0 0)"/><g class="r" transform="translate(0 0)"><path class="d" d="M9.33,25.112A12.66,12.66,0,0,0,24.9,16.158,12.68,12.68,0,1,0,.453,9.411,12.8,12.8,0,0,0,9.33,25.112Z" transform="translate(0.002 0)"/></g></g><g transform="translate(992.74 490.026)"><path class="a" d="M12.686,25.569h0A12.65,12.65,0,0,1,1.671,19.116,12.765,12.765,0,0,1,12.674,0,12.657,12.657,0,0,1,23.689,6.453a12.766,12.766,0,0,1-11,19.116ZM12.674,4.384a8.409,8.409,0,0,0-2.2,16.5A8.3,8.3,0,0,0,20.712,15,8.421,8.421,0,0,0,14.877,4.684,8.292,8.292,0,0,0,12.674,4.384Z" transform="translate(0 0)"/><g class="r" transform="translate(0 0)"><path class="c" d="M18.5,16.155a12.834,12.834,0,0,0-.2-7.418,12.726,12.726,0,0,0-4.253-6.054A12.576,12.576,0,0,0,0,1.679l6.279,11.1Z" transform="translate(6.403 0.003)"/></g></g><g transform="translate(958.004 480.439)"><path class="a" d="M12.683,25.568h0A12.651,12.651,0,0,1,1.671,19.116,12.763,12.763,0,0,1,12.671,0,12.65,12.65,0,0,1,23.685,6.453a12.765,12.765,0,0,1-11,19.116Zm-.01-21.185a8.408,8.408,0,0,0-2.194,16.5A8.3,8.3,0,0,0,20.712,15,8.422,8.422,0,0,0,14.877,4.684,8.293,8.293,0,0,0,12.673,4.383Z" transform="translate(0 0)"/><g class="s" transform="translate(0 0)"><path class="d" d="M9.33,25.112A12.663,12.663,0,0,0,24.9,16.158,12.8,12.8,0,0,0,16.021.456,12.66,12.66,0,0,0,.453,9.411,12.8,12.8,0,0,0,9.33,25.112Z" transform="translate(0.002 0)"/></g></g><g transform="translate(958.004 480.439)"><path class="a" d="M12.683,25.568h0A12.651,12.651,0,0,1,1.671,19.116,12.763,12.763,0,0,1,12.671,0,12.65,12.65,0,0,1,23.685,6.453a12.765,12.765,0,0,1-11,19.116Zm-.01-21.185a8.408,8.408,0,0,0-2.194,16.5A8.3,8.3,0,0,0,20.712,15,8.422,8.422,0,0,0,14.877,4.684,8.293,8.293,0,0,0,12.673,4.383Z" transform="translate(0 0)"/><g class="s" transform="translate(0 0)"><path class="c" d="M24.895,16.154A12.881,12.881,0,0,0,22.239,4.405a12.629,12.629,0,0,0-20.9,2.662,12.9,12.9,0,0,0,.323,12.045l11.008-6.331Z" transform="translate(0.006 0.002)"/></g></g><g transform="translate(921.977 470.496)"><path class="a" d="M12.683,25.57A12.658,12.658,0,0,1,1.67,19.116a12.793,12.793,0,0,1-1.215-9.7A12.633,12.633,0,0,1,23.686,6.453,12.793,12.793,0,0,1,24.9,16.158a12.7,12.7,0,0,1-12.217,9.411h0Zm-.01-21.186a8.408,8.408,0,0,0-2.193,16.5A8.294,8.294,0,0,0,20.711,15,8.418,8.418,0,0,0,14.875,4.684,8.281,8.281,0,0,0,12.673,4.384Z" transform="translate(0 0)"/><g class="t" transform="translate(0 0)"><path class="d" d="M9.331,25.112A12.66,12.66,0,0,0,24.9,16.157,12.793,12.793,0,0,0,16.02.457,12.66,12.66,0,0,0,.453,9.411,12.794,12.794,0,0,0,9.331,25.112Z" transform="translate(0.002 0.001)"/></g></g><g transform="translate(921.977 470.496)"><path class="a" d="M12.683,25.57A12.658,12.658,0,0,1,1.67,19.116a12.793,12.793,0,0,1-1.215-9.7A12.633,12.633,0,0,1,23.686,6.453,12.793,12.793,0,0,1,24.9,16.158a12.7,12.7,0,0,1-12.217,9.411h0Zm-.01-21.186a8.408,8.408,0,0,0-2.193,16.5A8.294,8.294,0,0,0,20.711,15,8.418,8.418,0,0,0,14.875,4.684,8.281,8.281,0,0,0,12.673,4.384Z" transform="translate(0 0)"/><g class="t" transform="translate(0 0)"><path class="c" d="M24.9,16.154A12.841,12.841,0,0,0,20.439,2.682a12.583,12.583,0,0,0-14.045-1A12.739,12.739,0,0,0,1.336,7.068,12.87,12.87,0,0,0,3.1,21.158a12.662,12.662,0,0,0,6.227,3.951l3.344-12.328Z" transform="translate(0.006 0.005)"/></g></g><path class="c" d="M.035.878a1.158,1.158,0,0,1,1.4-.843L22.656,5.424a1.162,1.162,0,0,1,.839,1.41,1.15,1.15,0,0,1-1.4.843L.874,2.289A1.163,1.163,0,0,1,.035.878Z" transform="translate(1029.866 497.552)"/><path class="c" d="M.035.878a1.15,1.15,0,0,1,1.4-.843l15.641,3.97a1.162,1.162,0,0,1-.565,2.253L.874,2.289A1.163,1.163,0,0,1,.035.878Z" transform="translate(1028.365 503.572)"/><path class="c" d="M2.2,5.782a2.9,2.9,0,0,0,3.527-2.13A2.932,2.932,0,0,0,3.622.089,2.914,2.914,0,0,0,.087,2.219,2.943,2.943,0,0,0,2.2,5.782Z" transform="translate(1023.801 518.622)"/><path class="c" d="M2.2,5.782a2.9,2.9,0,0,0,3.527-2.13A2.932,2.932,0,0,0,3.622.089,2.914,2.914,0,0,0,.087,2.219,2.943,2.943,0,0,0,2.2,5.782Z" transform="translate(1034.147 521.248)"/><path class="u" d="M14.559,28.159l-1.37-9.225c-.728-4.908,6.278-11.887,6.278-11.887L12.181,0,5.007,8.273,0,11.541,13.222,28.448Z" transform="translate(827.593 506.061)"/><path class="v" d="M12.319,22.892l5.109,4.432a2.473,2.473,0,0,0,2.419.473,2.522,2.522,0,0,0,1.605-3.057c-.426-1.55-1.033-3.829-1.73-6.661a40.408,40.408,0,0,1-1.373-8.44A14.342,14.342,0,0,1,12.107,6.4,8.159,8.159,0,0,1,9.326,0,19.155,19.155,0,0,0,.18,10.277L0,10.755l5.634,5.613,1.751.069L9.44,19.59A15.743,15.743,0,0,0,12.319,22.892Z" transform="translate(822.859 513.976)"/><path class="u" d="M24.067,14.536l-8.18-3.495C11.536,9.182,9.372,0,9.372,0L0,2.4l3.13,9.965.15,5.7,20.353-2.3Z" transform="translate(873.316 556.341)"/><path class="v" d="M20.149,11.522l6.158-1.939A2.363,2.363,0,0,0,27.9,7.852a2.4,2.4,0,0,0-1.68-2.832c-1.472-.427-3.627-1.072-6.278-1.921A38.459,38.459,0,0,1,12.4,0,13.712,13.712,0,0,1,6.642,3.456,7.78,7.78,0,0,1,.053,2.52,18.258,18.258,0,0,0,3.823,15.089l.3.385L11.5,13.7l.932-1.389,3.591-.1A15.034,15.034,0,0,0,20.149,11.522Z" transform="translate(875.896 566.346)"/><path class="v" d="M101.1,132.833l-18.5,5.442L60.709,72.361,17.828,43.46A28.6,28.6,0,0,1,8.6,33.238L0,17.173,34.323,0,64.87,1.729,80.634,3.522a11.012,11.012,0,0,1,6.788,18.47L52.1,32.072,79.029,55.056A8.578,8.578,0,0,1,81.757,59.4Z" transform="translate(789.303 428.85)"/><path class="v" d="M0,63.044l27.278-60.2L50.1,0,16.454,76.023Z" transform="translate(829.163 447.201)"/><path class="w" d="M0,0,3.127,5.446A57.26,57.26,0,0,0,20.872,24.475L58.21,49.532l21.974,67.32" transform="translate(796.833 448.386)"/><path class="w" d="M0,5.149,21.453,0,13.78,17.772" transform="translate(837.756 452.65)"/><path class="w" d="M0,17.623,7.918,0" transform="translate(832.993 494.771)"/><path class="x" d="M12.36,57.867l-9.1-5.386L0,67.737l8.682,4.894a12.6,12.6,0,0,0,17.5-5.427l18.888-38.53L50.369,25.5l4.262-2.939a5.949,5.949,0,0,0,2.55-4.378,4.161,4.161,0,0,0-1.319-3.416L51.1,10.351l6.54-7.716a1.6,1.6,0,0,0-2.31-2.21L46.471,8.6l-1.629-.838a1.719,1.719,0,0,0-2.011.324l-3.238,3.292a4.584,4.584,0,0,0-1.3,2.811l-.616,7.037Z" transform="translate(834.651 337.039)"/><path class="y" d="M7.805,0,2.432,5.32a1.428,1.428,0,0,1-1.947.057h0a1.426,1.426,0,0,1-.246-1.86L1.413,1.751" transform="translate(881.204 350.458)"/><path class="y" d="M8.168,0,2.217,4.759A1.366,1.366,0,0,1,.359,4.617h0A1.364,1.364,0,0,1,.4,2.733l.259-.261" transform="translate(883.4 352.922)"/><path class="y" d="M7.065,0,2.334,3.534A1.461,1.461,0,0,1,.385,3.353h0A1.459,1.459,0,0,1,.326,1.447L1.426.091" transform="translate(883.536 357.717)"/><path class="y" d="M3.085,0l4.9,4.22a1.034,1.034,0,0,1,.152,1.4h0a2.59,2.59,0,0,1-3.052.837L.032,4.385C.829,5.354,1.05,9.38,0,13.142" transform="translate(879.005 346.496)"/><path class="g" d="M9.568,15.057,19.891,8.509,40.623,1.9a40.111,40.111,0,0,1,27.092.975L80.083,7.821,78.726,28.979l-15.968-5.12,1.51,9.731,7.791,17.133a4.577,4.577,0,0,1-2.88,6.286L29.254,68.738a4.582,4.582,0,0,1-5.73-3.256L18.578,46.2l-1.539,8.919L1.645,56.606.051,33.892A20.6,20.6,0,0,1,9.568,15.057Z" transform="translate(766.495 384.631)"/><path class="z" d="M9.568,15.057,19.891,8.509,40.623,1.9a40.113,40.113,0,0,1,27.093.975L80.083,7.821,78.726,28.979l-15.968-5.12,1.51,9.731,7.791,17.133a4.578,4.578,0,0,1-2.88,6.286L29.254,68.738a4.581,4.581,0,0,1-5.729-3.256L18.579,46.2l-1.54,8.919L1.646,56.606.051,33.892A20.6,20.6,0,0,1,9.568,15.057Z" transform="translate(766.495 384.631)"/><g transform="translate(766.494 384.631)"><path class="a" d="M9.568,15.057,19.891,8.509,40.623,1.9a40.113,40.113,0,0,1,27.093.975L80.083,7.821,78.726,28.979l-15.968-5.12,1.51,9.731,7.791,17.133a4.578,4.578,0,0,1-2.88,6.286L29.254,68.738a4.581,4.581,0,0,1-5.729-3.256L18.579,46.2l-1.54,8.919L1.646,56.606.051,33.892A20.6,20.6,0,0,1,9.568,15.057Z" transform="translate(0 0)"/><g class="aa" transform="translate(0 0)"><g transform="translate(14.24 4.959)"><path class="ab" d="M40.09,0,0,17.02" transform="translate(0 0)"/><path class="ab" d="M43.58,0,0,18.625" transform="translate(1.937 9.337)"/><path class="ab" d="M48.805,0,0,20.745" transform="translate(2.728 18.122)"/><path class="ab" d="M50.5,0,0,20.118" transform="translate(3.999 32.532)"/><path class="ab" d="M59.719,0,0,21.536" transform="translate(1.872 43.644)"/></g></g></g><path class="x" d="M4.058,15.159C4.266,12.273,1.439,4.013,0,.244,4.97-.4,15.188-.16,16.3,5.969s3.738,6.912,4.911,6.538c2.167,2.363,4.872,7.959-1.638,11.446s-14.237-.745-17.287-3.3A10.827,10.827,0,0,0,4.058,15.159Z" transform="translate(781.61 375.465)"/><path class="v" d="M1.456,18.634c-4.611,3.8,2.9,8.827,6.276,11.382l7.8-2.487C18.2,26.675,23.358,21.3,25.6,18.713,28,16.6,33.439,11.545,30.03,9.52c-5.96-2.47-.408-8.1-8.633-9.385S11.89,7.072,4.525,9.42,5.262,15.492,1.456,18.634Z" transform="translate(772.463 343.953)"/><g transform="translate(781.834 375.586)"><path class="a" d="M4,14.979C4.215,12.128,1.423,3.97,0,.248,4.937-.4,15.083-.178,16.176,5.877s3.7,6.825,4.866,6.452c2.148,2.331,4.824,7.858-1.646,11.313s-14.138-.71-17.162-3.226A10.7,10.7,0,0,0,4,14.979Z" transform="translate(0 0)"/><g class="ac" transform="translate(0 0)"><path class="ad" d="M18.575,9.581C7.852,11.761,1.724,4.1,0,0L16.6,3.389C21.725,4.545,29.3,7.4,18.575,9.581Z" transform="translate(0.111 1.143)"/></g></g><path class="x" d="M4.832,19.689c.911,3.573,7.224,8.581,14.947,5.767,4.508-1.643,4-7.23,3.323-13.35C22.623,7.744,22.8,2.875,21.316.035L13.718,0c1.346.976,3.834,2.289.7,3.287-3.1.988-6.356.974-7.81.383.6,4.024-2.323,4.6-1.712,6.515L6.631,15.6C4.208,16.658,3,14.305,2.694,13c-1.247-.305-3.476-.085-2.417,3.229S3.755,19.916,4.832,19.689Z" transform="translate(777.338 356.802)"/><path class="v" d="M5.054,4.366A6.459,6.459,0,0,1,3,1.715C1.573.37-.957-1.466.376,1.953c.7,2.181,1.579,4,2.1,5.637,1.219,3.817,1.648,7.043,6.036,9.489,5.486,3.056,14.4-.087,15.81-4.142,1.728-4.968-2-6.269-3.68-9.639A103.467,103.467,0,0,1,9.917,6.419C7.391,6.979,6.221,5.2,5.054,4.366Z" transform="translate(780.442 368.992)"/><path class="c" d="M0,0,4.04.63a1.875,1.875,0,0,1-2,1.461C.717,2.073.182.855,0,0Z" transform="translate(792.219 375.04)"/><path class="v" d="M4.019.545A.783.783,0,0,0,3.035.037L.546.831a.783.783,0,0,0,.475,1.492l2.49-.794A.782.782,0,0,0,4.019.545Z" transform="translate(795.803 361.385)"/><path class="v" d="M4.019.545A.783.783,0,0,0,3.035.037L.546.831a.783.783,0,1,0,.475,1.492l2.49-.793A.783.783,0,0,0,4.019.545Z" transform="translate(785.848 364.558)"/><path d="M1.022,1.53A.783.783,0,1,1,1.53.545.784.784,0,0,1,1.022,1.53Z" transform="translate(788.135 367.364)"/><path class="y" d="M0,0,2.859,8.953.62,9.667" transform="translate(793.929 364.082)"/><path d="M1.022,1.53A.783.783,0,1,1,1.531.546.784.784,0,0,1,1.022,1.53Z" transform="translate(797.592 364.348)"/><path class="ae" d="M0,14.02,21.189,29.472,61.563,16.023,38.656,0Z" transform="translate(808.297 435.085)"/><path class="af" d="M0,14.02,20.616,28.9,61.563,16.023,38.656,0Z" transform="translate(809.729 433.942)"/><path class="ae" d="M49.043,0,6.807,12.844,0,45.208,3.15,47.5,43.25,35.26,52.687,1.143Z" transform="translate(825.763 416.488)"/><path class="af" d="M49.584.051,8.092,12.677a2.864,2.864,0,0,0-1.969,2.156L.062,43.964a2.862,2.862,0,0,0,3.622,3.323L41.327,36.06a2.861,2.861,0,0,0,1.967-2.081L51.032,1.41A1.144,1.144,0,0,0,49.584.051Z" transform="translate(827.99 417.533)"/><path class="ae" d="M6.591,6.511a3.933,3.933,0,0,0,.2-5.546,3.94,3.94,0,0,0-5.54.386,3.933,3.933,0,0,0-.2,5.546A3.939,3.939,0,0,0,6.591,6.511Z" transform="translate(849.945 437.661)"/><path class="x" d="M38.472,4.969,15.1,5.377.327,6.324.058,8.876a10.305,10.305,0,0,0,12.156,11.2l26.934-5.06,3.96.9a2.279,2.279,0,0,0,.356.052l5.169.348a.9.9,0,0,1,.132.02l7.325,1.73a1.215,1.215,0,0,0,.678-2.331L51.141,13.79l7.034.926a1,1,0,0,0,.4-1.96l-6.45-1.805,7.511.027a1.163,1.163,0,0,0,.206-2.309L51.995,7.287l8.04-.132a1.267,1.267,0,0,0,.1-2.528L48.146,3.462l1.695-.809A3.54,3.54,0,0,0,51.638.68.506.506,0,0,0,51.1,0L45.235.736a4.593,4.593,0,0,0-2.14.85Z" transform="translate(767.882 434.484)"/><rect class="c" width="40.289" height="40.289" rx="10.231" transform="translate(1138.264 341.936) rotate(-30)"/><path class="u" d="M0,22.009l4.972-6.964C7.619,11.34,4.8,2.716,4.8,2.716L13.7,0l2.413,9.751,2.728,4.758L.977,22.8Z" transform="translate(1145.754 676.878)"/><path class="v" d="M6.21,8.384,21.778,0a4.986,4.986,0,0,1,2.607,4.949l-.436,3.827L17,11.011l-.912-1.586-3.269,2.241a13.612,13.612,0,0,1-4.439,1.992L2.763,15.046A2.226,2.226,0,0,1,.665,11.3L6.783,5.257,5.2,7.14A.815.815,0,0,0,6.21,8.384Z" transform="translate(1141.538 690.409)"/><path class="u" d="M9.87,25.374,8.644,16.906C7.99,12.4,0,8.117,0,8.117L4.544,0l8.49,5.377,5.254,1.55L11.121,25.276Z" transform="translate(1160.975 613.498)"/><path class="v" d="M1.994,17.009,7.442.185a4.975,4.975,0,0,1,5.3,1.776l2.332,3.064-3.47,6.42-1.751-.517-.815,3.88a13.485,13.485,0,0,1-1.832,4.511l-3.1,4.89A2.228,2.228,0,0,1,0,22.951l.25-8.6L.4,16.81a.816.816,0,0,0,1.59.2Z" transform="translate(1170.223 620.416)"/><path class="v" d="M54.127,144.316l13.01-3.367L54.644,75.577,75.684,30.5a27.555,27.555,0,0,0,2.55-13L77.371,0,40.577,2.855,16.252,19.42,4.146,28.71A10.592,10.592,0,0,0,7.7,47.3l34.1-9.2L33.087,64.094a27.5,27.5,0,0,0,0,17.5Z" transform="translate(1092.918 539.27)"/><path class="v" d="M71.272,38.432,20.225,0,0,8.966,66.268,51.359Z" transform="translate(1096.717 575.86)"/><path class="ag" d="M23.676,0,1.288,57.124A18.735,18.735,0,0,0,.473,68.133l13.914,60.75" transform="translate(1142.602 552.123)"/><path class="ag" d="M20.233,0,0,6.389,15.124,17.234" transform="translate(1115.941 572.99)"/><path class="ag" d="M15.253,10.6,0,0" transform="translate(1151.871 605.029)"/><path class="j" d="M64.807,11.249,57.866,7.2,41.991,1.949A38.516,38.516,0,0,0,18.877,1.61L0,7.243,1.55,27.579l15.294-5.112L15.5,31.844,10.71,50.019a4.408,4.408,0,0,0,2.978,5.334L47.98,65.837a4.4,4.4,0,0,0,5.682-3.948L54.38,49.92l5.189-6.489,1.582,8.561,14.818,1.253L74.613,27.328A19.829,19.829,0,0,0,64.807,11.249Z" transform="translate(1120.493 488.926)"/><g transform="translate(1120.493 489.205)"><path class="a" d="M64.807,10.969,57.866,6.917,40.749,1.684a38.523,38.523,0,0,0-22-.158L0,6.964,1.55,27.3l15.294-5.112L15.5,31.564,8.216,48.136a4.409,4.409,0,0,0,2.841,6.013L48.513,64.662a4.4,4.4,0,0,0,5.593-4.13l.274-10.891,5.189-6.489,1.582,8.561,14.818,1.252L74.613,27.049A19.829,19.829,0,0,0,64.807,10.969Z" transform="translate(0 0)"/><g class="ah" transform="translate(0 0)"><g transform="translate(-4.484 -9.239)"><path class="ai" d="M11.03.375A8.532,8.532,0,1,0,16.7,11.03,8.527,8.527,0,0,0,11.03.375Z" transform="translate(17.941 0)"/><path class="ai" d="M6.05.206A4.679,4.679,0,1,0,9.157,6.049,4.682,4.682,0,0,0,6.05.206Z" transform="translate(75.751 30.714)"/><path class="aj" d="M3.911.133a3.027,3.027,0,1,0,2.01,3.78A3.022,3.022,0,0,0,3.911.133Z" transform="translate(50.699 36.866)"/><path class="aj" d="M10.316.351a7.982,7.982,0,1,0,5.3,9.967A7.985,7.985,0,0,0,10.316.351Z" transform="translate(31.189 62.575)"/><path class="aj" d="M10.319.351a7.982,7.982,0,1,0,5.3,9.967A7.985,7.985,0,0,0,10.319.351Z" transform="translate(0 27.137)"/></g></g></g><path class="v" d="M1.745,4.206C3.779-.342,8.573.369,10.712,1.294c1.461-.362,4.826-2.566,9.774-.245s9.951,7.084,6.44,13.282c0,0-2.671,13.185-12.13,10.294-.9,2.968-12.9,15.786-10.145,6.763S6.6,29.548,2.665,20.916C-.612,18.473-.805,9.892,1.745,4.206Z" transform="translate(1162.418 454.843)"/><path class="v" d="M6.429,17.772a9.083,9.083,0,1,1,11.339-6.03A9.076,9.076,0,0,1,6.429,17.772Z" transform="translate(1165.118 438.743)"/><path class="u" d="M8.426,4.556,7.748,6.773c-.912-.548-2.865-1.2-3.414.574-.67,2.217.355,4.147,2.058,3.859-.517,2.362-.662,7.287,2.437,10.309a18.352,18.352,0,0,1-3.261,5.6A7.758,7.758,0,0,1,0,29.454c.952,2.176,4.035,6.889,8.765,8.335S18.2,36.9,19.951,35.554a13.624,13.624,0,0,1-3.527-4.311c-.968-1.823-.218-5.223.589-7.633,3.7-1.127,5.908-4.983,7.11-6.981.912.548,2.913,1.052,3.632-1.313a2.331,2.331,0,0,0-2.276-3.12l.678-2.217A14.116,14.116,0,0,1,17.965,5.05C15.14,1.6,14.592.246,14.664,0a7.986,7.986,0,0,1-2.833,3.982A5.309,5.309,0,0,1,8.426,4.556Z" transform="translate(1157.852 460.796)"/><path class="c" d="M.278,0,3.127,2.709a1.8,1.8,0,0,1-2.381.059A2.2,2.2,0,0,1,.278,0Z" transform="translate(1169.091 477.359)"/><rect class="v" width="4.018" height="1.507" rx="0.753" transform="matrix(0.956, 0.292, -0.292, 0.956, 1178.94, 469.255)"/><rect class="v" width="4.018" height="1.507" rx="0.753" transform="matrix(0.956, 0.292, -0.292, 0.956, 1169.328, 466.319)"/><path d="M.534,1.475a.753.753,0,1,1,.936-.5A.75.75,0,0,1,.534,1.475Z" transform="translate(1169.787 469.347)"/><path class="ak" d="M4.8,0,2.163,8.645,0,7.984" transform="translate(1171.919 469.629)"/><path d="M.533,1.474a.754.754,0,1,1,.944-.5A.756.756,0,0,1,.533,1.474Z" transform="translate(1178.908 472.138)"/><path class="ak" d="M.363,0c-.412.487-.815,1.641.855,2.361" transform="translate(1163.542 468.599)"/><path class="ak" d="M2.026,0C2.1.634,1.784,1.818,0,1.481" transform="translate(1182.411 474.876)"/><g transform="translate(1157.852 460.796)"><path class="a" d="M8.426,4.556,7.748,6.773c-.912-.548-2.865-1.2-3.414.574-.67,2.217.355,4.147,2.058,3.859-.517,2.362-.662,7.287,2.437,10.309a18.352,18.352,0,0,1-3.261,5.6A7.758,7.758,0,0,1,0,29.454c.952,2.176,4.035,6.889,8.765,8.335S18.2,36.9,19.951,35.554a13.624,13.624,0,0,1-3.527-4.311c-.968-1.823-.218-5.223.589-7.633,3.7-1.127,5.908-4.983,7.11-6.981.912.548,2.913,1.052,3.632-1.313a2.331,2.331,0,0,0-2.276-3.12l.678-2.217A14.116,14.116,0,0,1,17.965,5.05C15.14,1.6,14.592.246,14.664,0a7.986,7.986,0,0,1-2.833,3.982A5.309,5.309,0,0,1,8.426,4.556Z" transform="translate(0 0)"/><g class="al" transform="translate(0 0)"><path class="z" d="M9.507,2.383a10.611,10.611,0,0,1-5.238-.027A12.655,12.655,0,0,1,.073.066L0,0A.437.437,0,0,0,.073.066L8.208,7.5Z" transform="translate(8.297 21.092)"/></g></g><path class="v" d="M22.818,28.988,21.607,1.536A1.1,1.1,0,0,0,20.534.484L1.132,0A1.107,1.107,0,0,0,0,1.175L1.85,28.643A1.1,1.1,0,0,0,2.924,29.67l18.764.468A1.1,1.1,0,0,0,22.818,28.988Z" transform="translate(1130.627 509.607)"/><path class="u" d="M21.775,10.2,41.637,20.716l14.011,1.123L53.831,33.031a7.158,7.158,0,0,1-11.339,4.6l-25.673-19.1-3.785-.947a2.527,2.527,0,0,1-.331-.111l-4.576-1.95A.713.713,0,0,0,8,15.476l-7.03-1.7A1.169,1.169,0,0,1,1.4,11.48l5.674.776L.646,9.988a.964.964,0,0,1,.508-1.855L7.466,9.39,1.017,6.146a1.12,1.12,0,0,1,.831-2.071L9.177,6.3,2.349,2.7a1.225,1.225,0,0,1,1-2.231L12.7,3.975,12.453,0,17.82,3.626a4.415,4.415,0,0,1,1.469,1.659Z" transform="translate(1139.894 520.012)"/><path class="u" d="M26.028,12.136,45.5,45.432l1.4,17.988h-.831A13.759,13.759,0,0,1,33.195,54.5L18.45,15.286,8.3,9.881.323,7.978a.42.42,0,0,1-.242-.656A2.114,2.114,0,0,1,1.84,6.434l16.916.312-.2-1.865A11.4,11.4,0,0,1,18.982.363a.511.511,0,0,1,.944-.085Z" transform="translate(1075.095 451.345)"/><rect class="j" width="26.63" height="26.63" rx="6.821" transform="translate(901.003 564.664) rotate(-30)"/><path class="o" d="M7.3.161A8.982,8.982,0,1,1,.16,10.665,8.984,8.984,0,0,1,7.3.161Z" transform="translate(979.904 635.037)"/><path class="am" d="M12.552.276A15.443,15.443,0,1,1,.276,18.337,15.442,15.442,0,0,1,12.552.276Z" transform="translate(961.742 617.546)"/></g></svg>