<svg xmlns="http://www.w3.org/2000/svg" xmlns:xlink="http://www.w3.org/1999/xlink" width="611.314" height="499.307" viewBox="0 0 611.314 499.307"><defs><style>.a{fill:#fff;}.b{fill:#7194c9;}.c{fill:#8ab6f7;}.d{fill:#ffc8c7;}.e{fill:#ff86a3;}.f{fill:#ecf6ff;}.g{fill:#1b4c71;}.h{fill:#c5d8f4;}.i{clip-path:url(#a);}.j{fill:#f7fbff;}.ac,.ae,.k,.m,.n,.o,.q,.r,.x{fill:none;stroke-miterlimit:10;}.k,.n,.r{stroke:#1b4c71;}.k{stroke-width:0.9px;}.l{fill:#63deb7;}.m{stroke:#9cabb7;stroke-linecap:round;stroke-width:3.6px;}.n{stroke-width:1.8px;}.o{stroke:#8ab6f7;stroke-width:7.2px;}.p{clip-path:url(#b);}.q{stroke:#fff;}.s{clip-path:url(#c);}.t{clip-path:url(#d);}.u{clip-path:url(#e);}.v{fill:#f5bbba;}.w{clip-path:url(#f);}.x{stroke:#f2aaa9;}.y{fill:#262f8f;}.z{clip-path:url(#g);}.aa{fill:#f2aaa9;}.ab{fill:#181b32;}.ac{stroke:#181b32;}.ad{clip-path:url(#h);}.ae{stroke:#95394f;}.af{fill:#f76b8d;}.ag{clip-path:url(#i);}</style><clipPath id="a"><path class="a" d="M0,29.727A29.727,29.727,0,0,1,29.727,0H52.521a6.932,6.932,0,0,1,6.932,6.932h0a6.932,6.932,0,0,0,6.932,6.932h83.16a6.932,6.932,0,0,0,6.932-6.932h0A6.932,6.932,0,0,1,163.409,0h22.83A29.762,29.762,0,0,1,216,29.762V405a32,32,0,0,1-32,32H32A32,32,0,0,1,0,405Z" transform="translate(0.059)"/></clipPath><clipPath id="b"><path class="b" d="M-69.106,53.757S-66.945,12.816-45.038,2.69,5.571,12.159-.939,42.459s-25.071-22.2-44.1-27.566c0,0-5.416,1.925-13.9,14.258A63.531,63.531,0,0,0-69.106,53.757Z" transform="translate(-0.484 0.058)"/></clipPath><clipPath id="c"><path class="c" d="M-50.875,109.751s11.889-36.668,35.844-67.342S-.642,0-10.324,0-40.3,17.616-44.785,48.462-50.875,109.751-50.875,109.751Z" transform="translate(-0.472)"/></clipPath><clipPath id="d"><path class="c" d="M-.987,80.533S4.358,52.911-19.245,18.5-75.538,2.344-41.338,35.215-.987,80.533-.987,80.533Z" transform="translate(-0.023 0.164)"/></clipPath><clipPath id="e"><path class="c" d="M-.293,115.427S2.593,55.234-22.95,16.921s-47.3-2.914-23.063,21.235S-.293,115.427-.293,115.427Z" transform="translate(0 0)"/></clipPath><clipPath id="f"><path class="d" d="M-19.83,23.929l4.816-.715a2.693,2.693,0,0,0,2.207-1.972h0a2.424,2.424,0,0,0-1.037-2.665l-.4-.253.4-.186a2.6,2.6,0,0,0,1.493-2.349h0a2.652,2.652,0,0,0-1.479-2.379l-.41-.2h0a2.86,2.86,0,0,0,1.549-2.766l-.012-.151a2.868,2.868,0,0,0-2.148-2.558l-.013,0L-1.957,4.52A2.579,2.579,0,0,0,0,2.017H0A1.714,1.714,0,0,0-1.99.326L-24.657,4.033h0A7.844,7.844,0,0,0-32.1,5.171l-.435.332c-1.524,2.08-5.8,6.4-5.8,6.4L-75.806,33.191-94.081,6.6l-16.776,10.229S-97,51.967-81.864,53.174c16.976,0,48.549-29.245,48.549-29.245a19.961,19.961,0,0,0,5.5.772A66.379,66.379,0,0,0-19.83,23.929Z" transform="translate(0 0)"/></clipPath><clipPath id="g"><path class="d" d="M-10.645,53.27c-7.492,2.722-30.3-2.432-30.3-2.432s3.193-.89,3.925-2.406c3.688-7.634,3.427-26.559,3.427-26.559-3.054-1.036-4.861-7-3.472-8.712C-35.308,11-31.083,13-31.083,13s1.735-2.792,8.392-4.116C-5.153,5.546,0,0,0,0S-.506,14.307-.754,17.76C-1.616,29.731-9.931,39.385-17,37.683c0,0-.549,7.639.551,11.761.338,1.268,4.627,1.471,6.17,1.763C-6.811,51.864-5.458,51.385-10.645,53.27Z" transform="translate(0 0)"/></clipPath><clipPath id="h"><path class="e" d="M-107.091,43.134c2.11-18.617,10.542-37.875,18.828-40.9C-83.923.647-73.19,0-73.19,0s43.228,0,50.177,2.232S0,30.156,0,30.156l-16.229,9.308s1.859,3.709,1.859,10.317c0,5.994-5.369,18.147-6.551,28.861-1.043,9.454,2.17,19.73,2.17,21.832,0,0-22.234,3.117-33.392,3.117a129.108,129.108,0,0,1-29.074-3.117L-77.4,80.413l-4.826-35.961-.363,2.822Z" transform="translate(0 0.081)"/></clipPath><clipPath id="i"><path class="d" d="M-11.341,28.148q2.788-.611,5.51-1.479l1.777-.567A1.356,1.356,0,0,0-3.11,24.81h0a.791.791,0,0,0-.966-.772l-1.7.385q-1.871.424-3.758.776l-4.09.763h0A40.624,40.624,0,0,0-5,22.749l3.875-1.969a1.471,1.471,0,0,0,.732-1.768h0a1.178,1.178,0,0,0-1.56-.726L-6.443,20.1a37.88,37.88,0,0,1-7.18,2.1h0a78.893,78.893,0,0,0,7.541-3.873l4.3-2.508a1.672,1.672,0,0,0,.627-2.243h0a1.645,1.645,0,0,0-2.21-.671l-4.061,2.132a26.133,26.133,0,0,1-8.083,2.677h0l3.362-2.077,7.776-4.731-1.37.834a1.458,1.458,0,0,0,.41-2.119h0A1.856,1.856,0,0,0-7.7,9.1l-3.312,1.795a40,40,0,0,1-7.073,2.994l-5.568,1.748,2.253-4.813A2.9,2.9,0,0,0-22.661,7.04h0l-4.012,6.922a40.036,40.036,0,0,0-5.7,5.568l-35.79,11,6.753-26.733L-83.432,0s-11.995,43.968,0,50.35,56.405-20.506,56.405-20.506,4.648.107,7.948,0Z" transform="translate(0 0)"/></clipPath></defs><g transform="translate(-699 -279)"><g transform="translate(699 279)"><path class="f" d="M239.677,0C126.242,0,37.607,56.58,8.566,141.011S22.555,385.177,164.774,399.173s167.075-45.595,317.814-45.595,150.568-176.76,53.02-246.666S353.113,0,239.677,0Z"/><g transform="translate(254.894 20.307)"><rect class="g" width="248" height="479" rx="41"/><rect class="h" width="240" height="463" rx="35" transform="translate(8 8)"/><g transform="translate(19.941 21)"><path class="a" d="M0,29.727A29.727,29.727,0,0,1,29.727,0H52.521a6.932,6.932,0,0,1,6.932,6.932h0a6.932,6.932,0,0,0,6.932,6.932h83.16a6.932,6.932,0,0,0,6.932-6.932h0A6.932,6.932,0,0,1,163.409,0h22.83A29.762,29.762,0,0,1,216,29.762V405a32,32,0,0,1-32,32H32A32,32,0,0,1,0,405Z" transform="translate(0.059)"/><g class="i"><path class="j" d="M0,136.818,228.686,0l-6.627,304.075H0Z" transform="translate(-6 132.925)"/></g></g><g transform="translate(35 223)"><rect class="k" width="188.378" height="103.417" rx="4.5"/><path class="c" d="M0,0H13.456a0,0,0,0,1,0,0V24.205a2.7,2.7,0,0,1-2.7,2.7H2.7a2.7,2.7,0,0,1-2.7-2.7V0A0,0,0,0,1,0,0Z" transform="translate(37.003 62.218)"/><path class="c" d="M0,0H13.456a0,0,0,0,1,0,0V41.862a2.7,2.7,0,0,1-2.7,2.7H2.7a2.7,2.7,0,0,1-2.7-2.7V0A0,0,0,0,1,0,0Z" transform="translate(62.232 44.562)"/><path class="c" d="M0,0H13.456a0,0,0,0,1,0,0V29.25a2.7,2.7,0,0,1-2.7,2.7H2.7A2.7,2.7,0,0,1,0,29.25V0A0,0,0,0,1,0,0Z" transform="translate(87.461 57.174)"/><path class="c" d="M0,0H13.456a0,0,0,0,1,0,0V51.111a2.7,2.7,0,0,1-2.7,2.7H2.7a2.7,2.7,0,0,1-2.7-2.7V0A0,0,0,0,1,0,0Z" transform="translate(112.69 35.313)"/><path class="c" d="M0,0H13.456a0,0,0,0,1,0,0V60.359a2.7,2.7,0,0,1-2.7,2.7H2.7a2.7,2.7,0,0,1-2.7-2.7V0A0,0,0,0,1,0,0Z" transform="translate(137.92 26.064)"/><rect class="k" width="13.456" height="74.83" rx="2.7" transform="translate(37.003 14.293)"/><rect class="k" width="13.456" height="74.83" rx="2.7" transform="translate(62.232 14.293)"/><rect class="k" width="13.456" height="74.83" rx="2.7" transform="translate(87.461 14.293)"/><rect class="k" width="13.456" height="74.83" rx="2.7" transform="translate(112.69 14.293)"/><rect class="k" width="13.456" height="74.83" rx="2.7" transform="translate(137.92 14.293)"/></g><g transform="translate(53 52)"><path class="a" d="M74.039,147.973a73.987,73.987,0,1,1,74.039-73.987A74.013,74.013,0,0,1,74.039,147.973Z" transform="translate(1.175 1.174)"/><path class="g" d="M75.215,150.322a74.9,74.9,0,0,1-42.053-12.836A75.388,75.388,0,0,1,5.911,104.417a75.02,75.02,0,0,1,6.935-71.279A75.428,75.428,0,0,1,45.938,5.907a75.155,75.155,0,0,1,71.33,6.93A75.388,75.388,0,0,1,144.518,45.9a75.021,75.021,0,0,1-6.935,71.279,75.426,75.426,0,0,1-33.092,27.231A74.788,74.788,0,0,1,75.215,150.322Zm0-147.973a72.812,72.812,0,1,0,72.864,72.812A73.034,73.034,0,0,0,75.215,2.349Z"/><ellipse class="l" cx="64.938" cy="64.892" rx="64.938" ry="64.892" transform="translate(10.276 10.269)"/><circle class="a" cx="41" cy="41" r="41" transform="translate(35 35)"/><g transform="translate(30 30)"><path class="g" d="M0,45A45,45,0,1,1,45,90,45,45,0,0,1,0,45Z" transform="translate(0)"/></g></g><g transform="translate(35 342)"><rect class="k" width="188.378" height="103.417" rx="4.5"/><ellipse class="a" cx="25.65" cy="25.644" rx="25.65" ry="25.644" transform="translate(13.456 26.064)"/><path class="m" d="M0,.42H80.733" transform="translate(84.097 26.064)"/><path class="m" d="M0,.42H80.733" transform="translate(84.097 42.88)"/><path class="m" d="M0,.42H80.733" transform="translate(84.097 59.696)"/><path class="m" d="M0,.42H80.733" transform="translate(84.097 76.512)"/><g transform="translate(22.706 36.154)"><ellipse class="n" cx="16.12" cy="15.975" rx="16.12" ry="15.975" transform="translate(0 0)"/><path class="o" d="M16.12,0a15.976,15.976,0,1,0,0,31.95h0" transform="translate(0)"/></g></g></g><g transform="translate(611.799 312.307)"><g transform="translate(0 79.25)"><path class="b" d="M-69.106,53.757S-66.945,12.816-45.038,2.69,5.571,12.159-.939,42.459s-25.071-22.2-44.1-27.566c0,0-5.416,1.925-13.9,14.258A63.531,63.531,0,0,0-69.106,53.757Z" transform="translate(-0.484 0.058)"/><g class="p"><path class="c" d="M-43.714,20.724s-9.979-5.338-16.961-2.009c0,0-2.456-3.541,11.352-14.595s38.581,7.551,38.581,7.551S1.15,16.654-.123,36.267-.29,68.039-14.218,58.089-43.714,20.724-43.714,20.724Z" transform="translate(1.828 -4.274)"/><path class="q" d="M-61.655,43.532S-56.5-5.814-27.611.777-.06,49.988-.06,49.988" transform="translate(-7.426 5.872)"/></g></g><path class="r" d="M0,0S-.231,9.856-1.818,21.752" transform="translate(-69.081 128.126)"/><path class="r" d="M0,0S-3.018,25.86-3.018,42.449" transform="translate(-73.557 107.429)"/><path class="r" d="M-.4,26.326S.875,12.121-1.935,0" transform="translate(-78.228 123.552)"/><path class="r" d="M0,33.475S-2.293,12.458-11.172,0" transform="translate(-82.848 116.403)"/><g transform="translate(-22.645)"><path class="c" d="M-50.875,109.751s11.889-36.668,35.844-67.342S-.642,0-10.324,0-40.3,17.616-44.785,48.462-50.875,109.751-50.875,109.751Z" transform="translate(-0.472)"/><g class="s"><path class="q" d="M-56.832,109.751S-44.919,24.386,0,0" transform="translate(5.485)"/></g></g><g transform="translate(-85.263 52.368)"><path class="c" d="M-.987,80.533S4.358,52.911-19.245,18.5-75.538,2.344-41.338,35.215-.987,80.533-.987,80.533Z" transform="translate(-0.023 0.164)"/><g class="t"><path class="b" d="M-3.68,68.282S-31.025,22.572-52.188,0l13.639.79S-15.027-6.059,0,61.166Z" transform="translate(3.657 -0.611)"/><path class="q" d="M0,78.265S-16.261,27.935-55.516,0" transform="translate(-1.162 2.508)"/></g></g><g transform="translate(-78.624 15.47)"><path class="c" d="M-.293,115.427S2.593,55.234-22.95,16.921s-47.3-2.914-23.063,21.235S-.293,115.427-.293,115.427Z" transform="translate(0 0)"/><g class="u"><path class="q" d="M0,114.169S-12.779,29.968-57.488,0" transform="translate(-0.571 1.258)"/></g></g><path class="b" d="M0,0H38.395a0,0,0,0,1,0,0V16.826a19.2,19.2,0,0,1-19.2,19.2h0A19.2,19.2,0,0,1,0,16.826V0A0,0,0,0,1,0,0Z" transform="translate(-95.937 148.61)"/></g><g transform="translate(303.894 58.307)"><g transform="translate(-86.761 234.057)"><path d="M-21.969,5.215s10.9,8.107,16.291,13.453S1.05,28.781-.761,32.776s-12.853,7.418-26.056-2.87c-4.56-3.553-6.3-5.952-10-9.425a123.846,123.846,0,0,1-8.645-9.524S-47.093,2.965-42.554.6-21.969,5.215-21.969,5.215Z" transform="translate(0 166.211)"/><path class="v" d="M-6.293,0V47.123s-5.285,65.737-6.146,83.65c-1.241,25.837.77,36.729,1.1,38.106.779,3.256,6.091,6.311,10.281,11.742s-4.879,11.622-13.017,7.1l-16.9-13.35a5,5,0,0,1-1.9-3.923V138.325c0-18.728-6.059-48.417-6.893-58.956-1.6-20.172,1.448-28.784,1.448-28.784L-42.643,0Z" transform="translate(-11.42 0)"/><path d="M-19.3,8.51S1.126,24.764-.066,32.451s-13.667,9.233-22.9,3.759-17.274-20.4-18.7-25.063,1.159-7.2,5.3-10.418S-19.3,8.51-19.3,8.51Z" transform="translate(-33.588 166.503)"/><path class="d" d="M-5.339,0V47.123s-5.285,65.737-6.146,83.65l-.566,34.723a11,11,0,0,0,2.2,6.78l8.2,10.933c6.317,6.578-6.927,10.427-15.635,4.86l-10.863-13.221a7,7,0,0,1-1.586-4.156l-1.207-29.363c0-18.728-7.038-51.421-7.872-61.959-1.6-20.172,1.448-28.784,1.448-28.784L-41.689,0Z" transform="translate(-43.707 0)"/></g><g transform="translate(0 90.372)"><path class="d" d="M-19.83,23.929l4.816-.715a2.693,2.693,0,0,0,2.207-1.972h0a2.424,2.424,0,0,0-1.037-2.665l-.4-.253.4-.186a2.6,2.6,0,0,0,1.493-2.349h0a2.652,2.652,0,0,0-1.479-2.379l-.41-.2h0a2.86,2.86,0,0,0,1.549-2.766l-.012-.151a2.868,2.868,0,0,0-2.148-2.558l-.013,0L-1.957,4.52A2.579,2.579,0,0,0,0,2.017H0A1.714,1.714,0,0,0-1.99.326L-24.657,4.033h0A7.844,7.844,0,0,0-32.1,5.171l-.435.332c-1.524,2.08-5.8,6.4-5.8,6.4L-75.806,33.191-94.081,6.6l-16.776,10.229S-97,51.967-81.864,53.174c16.976,0,48.549-29.245,48.549-29.245a19.961,19.961,0,0,0,5.5.772A66.379,66.379,0,0,0-19.83,23.929Z" transform="translate(0 0)"/><g class="w"><path class="x" d="M-5.93,0,0,7.273a5.476,5.476,0,0,1-5.45,0,12.258,12.258,0,0,1-4.13-3.231s2.985,5.581-1.428,9.882" transform="translate(-19.411 3.922)"/><path class="x" d="M0,.119-6.876.73" transform="translate(-14.865 7.61)"/><path class="x" d="M0,2.324s-7.979.91-9.321.91-3.12-1.2-1.353-3.233" transform="translate(-14.241 10.884)"/><path class="x" d="M0,4.206s-5.615.324-8.281.324S-11.863,1.98-9.774,0" transform="translate(-14.241 14.118)"/><path class="x" d="M0,4.367S-7.455,3.9-8.5,3.4-10.481.409-7.665,0" transform="translate(-14.241 18.648)"/><path class="x" d="M0,0S-3.472,1.478-5.221,10.716" transform="translate(-73.471 30.925)"/></g></g><g transform="translate(-107.93)"><path class="y" d="M-34.542,78.971s-28.234,5.754-35.165-13.993,16.717-43.6,16.717-43.6C-47.63-3.818-23.8-1.642-16.376,2.655-13.3,4.438-10,6.26-7.463,14.907c2.1,7.165-.85,17.562-.85,17.562,10.189,8.154,17.2,51.274-17.618,45.879Z" transform="translate(-0.464 0.023)"/><g transform="translate(-9.87 16.695)"><g transform="translate(-1.563 0.006)"><path class="d" d="M-10.645,53.27c-7.492,2.722-30.3-2.432-30.3-2.432s3.193-.89,3.925-2.406c3.688-7.634,3.427-26.559,3.427-26.559-3.054-1.036-4.861-7-3.472-8.712C-35.308,11-31.083,13-31.083,13s1.735-2.792,8.392-4.116C-5.153,5.546,0,0,0,0S-.506,14.307-.754,17.76C-1.616,29.731-9.931,39.385-17,37.683c0,0-.549,7.639.551,11.761.338,1.268,4.627,1.471,6.17,1.763C-6.811,51.864-5.458,51.385-10.645,53.27Z" transform="translate(0 0)"/><g class="z"><path class="aa" d="M-.784,9.278S-11.054,6.65-13.619,0C-13.619,0-11.2,17.471,0,21.607Z" transform="translate(-15.729 28.552)"/><path class="x" d="M0,.649s-2.408-1.46-3.848,0,1.5,6.045,1.5,6.045" transform="translate(-32.254 13.366)"/></g></g><ellipse class="ab" cx="1.156" cy="1.157" rx="1.156" ry="1.157" transform="translate(-17.538 13.167)"/><ellipse class="ab" cx="1.156" cy="1.157" rx="1.156" ry="1.157" transform="translate(-6.971 13.167)"/><path class="ac" d="M-1.074,0S0,6.615,0,8.433s-4.677.715-4.677.715" transform="translate(-9.156 15.284)"/><path class="ab" d="M.773.719A6.284,6.284,0,0,1,3.677,0a6.077,6.077,0,0,1,2.94.552c.53.338.832.76.523,1.255S6.2,1.813,5.866,1.6A4.339,4.339,0,0,0,3.632.987a8,8,0,0,0-2.556.4c-.543.195-.91.5-1.05.208S.334.972.773.719Z" transform="translate(-20.197 8.074) rotate(-3)"/><path class="ab" d="M-.773.719A6.283,6.283,0,0,0-3.677,0a6.078,6.078,0,0,0-2.94.552c-.53.338-.832.76-.523,1.255s.935.006,1.274-.209A4.34,4.34,0,0,1-3.632.987a8,8,0,0,1,2.556.4c.543.195.91.5,1.05.208S-.333.972-.773.719Z" transform="matrix(0.998, -0.07, 0.07, 0.998, -2.373, 7.445)"/><ellipse class="q" cx="4.623" cy="4.627" rx="4.623" ry="4.627" transform="translate(-9.282 9.862)"/><ellipse class="q" cx="4.623" cy="4.627" rx="4.623" ry="4.627" transform="translate(-21.17 9.862)"/><path class="a" d="M0,.682-7.644,0S-6.6,3.343-4.377,3.69,0,.682,0,.682Z" transform="matrix(0.998, -0.07, 0.07, 0.998, -8.935, 27.614)"/><path class="q" d="M0,.331H-2.642" transform="translate(-9.282 14.159)"/><path class="q" d="M0,1.9-11.641,0" transform="translate(-21.464 12.586)"/></g></g><path class="y" d="M-65.611,0S-81.679,23.234-81.679,48.337s6.758,68.536,6.758,68.536,11.588,7.563,36.512,5.465,36.441-7.907,36.441-7.907S3.385,48.337-5.822,20.9l-3.9-10.015Z" transform="translate(-99.079 157.129)"/><g transform="translate(-90.05 67.459)"><path class="e" d="M-107.091,43.134c2.11-18.617,10.542-37.875,18.828-40.9C-83.923.647-73.19,0-73.19,0s43.228,0,50.177,2.232S0,30.156,0,30.156l-16.229,9.308s1.859,3.709,1.859,10.317c0,5.994-5.369,18.147-6.551,28.861-1.043,9.454,2.17,19.73,2.17,21.832,0,0-22.234,3.117-33.392,3.117a129.108,129.108,0,0,1-29.074-3.117L-77.4,80.413l-4.826-35.961-.363,2.822Z" transform="translate(0 0.081)"/><g class="ad"><path class="d" d="M-6.343.742S5.643,14.523-5.019,18.452s-21.53.842-26.509-3.625S-41.182,0-41.182,0Z" transform="translate(-32.199 -0.661)"/><path class="ae" d="M0,5.412-4.984,0" transform="translate(-15.823 34.326)"/><path class="ae" d="M0,0-3.324,11.474" transform="translate(-79.26 34.948)"/><path class="af" d="M-6.391,20.056s-35.019,5.193-47.575-1.631A38.039,38.039,0,0,1-70.738,0V56.4s22.1,4.366,31.035,4.289C-13.458,60.464,0,55.942,0,56.4,0,57.329-6.391,20.056-6.391,20.056Z" transform="translate(-11.483 44.533)"/></g></g><g transform="translate(-112.591 110.98)"><path class="d" d="M-11.341,28.148q2.788-.611,5.51-1.479l1.777-.567A1.356,1.356,0,0,0-3.11,24.81h0a.791.791,0,0,0-.966-.772l-1.7.385q-1.871.424-3.758.776l-4.09.763h0A40.624,40.624,0,0,0-5,22.749l3.875-1.969a1.471,1.471,0,0,0,.732-1.768h0a1.178,1.178,0,0,0-1.56-.726L-6.443,20.1a37.88,37.88,0,0,1-7.18,2.1h0a78.893,78.893,0,0,0,7.541-3.873l4.3-2.508a1.672,1.672,0,0,0,.627-2.243h0a1.645,1.645,0,0,0-2.21-.671l-4.061,2.132a26.133,26.133,0,0,1-8.083,2.677h0l3.362-2.077,7.776-4.731-1.37.834a1.458,1.458,0,0,0,.41-2.119h0A1.856,1.856,0,0,0-7.7,9.1l-3.312,1.795a40,40,0,0,1-7.073,2.994l-5.568,1.748,2.253-4.813A2.9,2.9,0,0,0-22.661,7.04h0l-4.012,6.922a40.036,40.036,0,0,0-5.7,5.568l-35.79,11,6.753-26.733L-83.432,0s-11.995,43.968,0,50.35,56.405-20.506,56.405-20.506,4.648.107,7.948,0Z" transform="translate(0 0)"/><g class="ag"><path class="x" d="M0,0-10.06,10.2" transform="translate(-66.164 28.083)"/></g></g></g></g><path class="a" d="M15.75,36a4.5,4.5,0,0,0,4.5-4.5h-9A4.5,4.5,0,0,0,15.75,36ZM30.895,25.474c-1.358-1.46-3.9-3.656-3.9-10.849a11.1,11.1,0,0,0-9-10.91V2.25a2.249,2.249,0,1,0-4.5,0V3.715a11.1,11.1,0,0,0-9,10.91c0,7.193-2.542,9.389-3.9,10.849A2.2,2.2,0,0,0,0,27a2.252,2.252,0,0,0,2.257,2.25H29.243A2.252,2.252,0,0,0,31.5,27a2.2,2.2,0,0,0-.605-1.526Z" transform="translate(1067.596 403.653)"/></g></svg>