<svg xmlns="http://www.w3.org/2000/svg" width="525" height="411.241" viewBox="0 0 525 411.241"><defs><style>.a{fill:#e1f1ff;opacity:0.69;}.b{fill:#8dbffb;}.c,.f,.i,.v,.w,.y{fill:#fff;}.d{fill:#a4d2ff;}.e{fill:#fdbd28;}.f,.p{opacity:0.31;}.g{fill:#f4ac1e;}.h{fill:#fa7701;}.i{opacity:0.17;}.j{fill:#4741bb;}.k,.n{fill:#4f6bfd;}.k{opacity:0.07;}.l{fill:#fcc0bf;}.m{fill:#2b1a82;}.o{fill:#392ea0;}.q{opacity:0.32;}.r,.t{fill:#29114d;}.s,.t{opacity:0.2;}.u{fill:#13a173;}.v{opacity:0.27;}.w{font-size:31px;font-family:Montserrat-ExtraBold, Montserrat;font-weight:800;}.x{fill:#ff748f;}.y{opacity:0.74;}</style></defs><g transform="translate(-504.849 -186.76)"><g transform="translate(504.849 186.76)"><path class="a" d="M621.693,363.47c13.944,51.975,142.926,62.693,234.323,48.627,63.572-9.784,152.958-38.33,152.584-70.174-.227-19.273-33.254-33.038-39.685-35.718-55.327-23.058-85.746,16.6-166.413,22.809-91.027,7-144.962-36.375-171.811-4.368C622.354,334.586,618.092,350.048,621.693,363.47Z" transform="translate(-563.349 -242.243)"/><path class="a" d="M526.317,742.679C504.4,600.833,532.272,549.006,560.7,527.5c46.465-35.155,94.346,10.744,219.358-3.009,117.935-12.973,162.931-63.46,200.32-33.194,29.533,23.907,29.7,78.266,29.93,154.421a589.828,589.828,0,0,1-7.672,96.574Z" transform="translate(-511.731 -332.506)"/><g transform="translate(292.589 230.419)"><g transform="translate(0 13.856)"><path class="b" d="M1097.426,747.664c3.3-2.018,4.853-6.163,5-10.095s-.878-7.8-1.587-11.663c-.928-5.072-1.317-10.346-.147-15.365.722-3.1,2.02-6.026,2.732-9.124.954-4.146.831-8.47,1.467-12.679,1.219-8.077,5.911-16.162,13.459-18.8,1.242-.434,2.719-.68,3.782.108,1.323.98,1.306,2.983,1.031,4.632-.466,2.8-1.289,5.628-.857,8.436.352,2.292,1.515,4.363,2.163,6.586,2.123,7.287-1.462,15.1-.6,22.656.607,5.328,3.413,10.343,3.146,15.7-.254,5.1-3.241,9.579-4.889,14.4-.879,2.574-1.411,5.343-2.964,7.559a17.934,17.934,0,0,1-4.481,4.072q-2.839,2.028-5.731,3.979c-.728.492-1.72.976-2.4.42Z" transform="translate(-1097.426 -669.532)"/><path class="c" d="M1130.244,701.151c-.331,4.823-.719,9.64-1.129,14.455s-.839,9.628-1.291,14.439-.926,9.619-1.421,14.426-1.011,9.611-1.585,14.41c.33-4.823.719-9.64,1.128-14.455s.838-9.628,1.292-14.439.927-9.62,1.422-14.426S1129.671,705.95,1130.244,701.151Z" transform="translate(-1111.293 -685.152)"/></g><g transform="translate(22.243 63.743)"><path class="b" d="M1145.833,798.893c3.511,1.592,7.712.5,10.927-1.653s5.7-5.239,8.373-8.065c3.5-3.706,7.479-7.078,12.153-9,2.882-1.185,5.967-1.792,8.845-2.986,3.853-1.6,7.227-4.2,10.947-6.1,7.138-3.646,16.288-4.392,22.751.4a4.319,4.319,0,0,1,2.1,3.226c-.016,1.672-1.622,2.815-3.094,3.538-2.5,1.229-5.227,2.173-7.214,4.156-1.622,1.619-2.6,3.787-4,5.614-4.578,5.985-12.875,7.5-18.394,12.585-3.893,3.586-6.267,8.83-10.688,11.7-4.212,2.736-9.5,2.822-14.3,4.232-2.558.752-5.072,1.906-7.733,1.887a17.425,17.425,0,0,1-5.832-1.4q-3.255-1.2-6.48-2.495c-.812-.325-1.771-.876-1.723-1.768Z" transform="translate(-1142.476 -768.126)"/><path class="c" d="M1221.323,789.323c-4.032,2.51-8.094,4.967-12.166,7.407s-8.154,4.86-12.247,7.261-8.2,4.782-12.312,7.145-8.239,4.707-12.394,7c4.032-2.51,8.094-4.968,12.166-7.407s8.153-4.86,12.247-7.26,8.2-4.782,12.312-7.144S1217.169,791.616,1221.323,789.323Z" transform="translate(-1157.525 -778.598)"/></g><g transform="translate(7.793)"><path class="d" d="M1113.21,734.126c5.252-1.064,9.193-5.757,11.181-10.85s2.416-10.656,3.258-16.074c1.1-7.1,3.009-14.215,6.844-20.241,2.365-3.716,5.411-6.939,7.765-10.664,3.149-4.984,4.969-10.719,7.731-15.94,5.3-10.017,15.161-18.373,26.279-18.208,1.829.027,3.88.415,4.915,1.961,1.288,1.923.348,4.544-.767,6.577-1.895,3.454-4.27,6.768-4.988,10.662-.587,3.179-.009,6.455-.177,9.686-.551,10.587-8.836,19.123-11.165,29.453-1.643,7.287-.256,15.22-3.06,22.124-2.672,6.578-8.643,11.016-13.014,16.557-2.333,2.957-4.3,6.336-7.352,8.5a24.456,24.456,0,0,1-7.747,3.19q-4.657,1.3-9.345,2.467c-1.181.3-2.705.452-3.348-.605Z" transform="translate(-1113.21 -642.148)"/><path class="c" d="M1186.816,680.738c-2.643,6.172-5.359,12.309-8.1,18.433s-5.51,12.236-8.308,18.333-5.621,12.183-8.472,18.255-5.729,12.13-8.68,18.154c2.642-6.172,5.358-12.31,8.1-18.433s5.51-12.236,8.309-18.333,5.622-12.182,8.473-18.254S1183.866,686.762,1186.816,680.738Z" transform="translate(-1133.483 -661.212)"/></g></g><g transform="translate(20.708 142.775)"><g transform="translate(50.682 9.74)"><path class="b" d="M670.244,543.108c-2.317-1.418-3.411-4.332-3.512-7.1s.618-5.48,1.116-8.2a26.645,26.645,0,0,0,.1-10.8c-.507-2.176-1.419-4.236-1.92-6.414-.67-2.914-.584-5.954-1.031-8.913-.857-5.678-4.155-11.361-9.461-13.217a2.9,2.9,0,0,0-2.658.076c-.93.689-.918,2.1-.725,3.257.327,1.969.906,3.956.6,5.93a37.3,37.3,0,0,1-1.521,4.63c-1.492,5.123,1.028,10.617.423,15.927-.427,3.746-2.4,7.271-2.212,11.037.179,3.588,2.279,6.734,3.437,10.126.618,1.809.992,3.756,2.084,5.313a12.6,12.6,0,0,0,3.15,2.862q2,1.425,4.029,2.8c.512.346,1.21.686,1.69.295Z" transform="translate(-649.435 -488.183)"/><path class="c" d="M664.6,510.41c.233,3.391.505,6.777.793,10.162s.59,6.769.908,10.15.651,6.762,1,10.141.711,6.756,1.115,10.13c-.232-3.39-.505-6.777-.793-10.162s-.589-6.768-.908-10.15-.651-6.762-1-10.141S665,513.783,664.6,510.41Z" transform="translate(-657.111 -499.163)"/></g><g transform="translate(0 44.81)"><path class="b" d="M600.283,579.121c-2.469,1.119-5.422.351-7.682-1.162s-4.008-3.682-5.886-5.669a25.421,25.421,0,0,0-8.543-6.326c-2.026-.833-4.2-1.259-6.218-2.1-2.709-1.123-5.08-2.951-7.7-4.287-5.018-2.563-11.45-3.087-15.994.279a3.039,3.039,0,0,0-1.475,2.268c.012,1.176,1.14,1.979,2.175,2.487,1.758.864,3.675,1.528,5.072,2.922a36.73,36.73,0,0,1,2.809,3.946c3.218,4.208,9.051,5.274,12.931,8.848,2.737,2.521,4.405,6.207,7.513,8.226,2.962,1.923,6.681,1.984,10.05,2.975,1.8.529,3.566,1.34,5.436,1.327a12.253,12.253,0,0,0,4.1-.982q2.289-.846,4.555-1.754c.571-.229,1.245-.616,1.212-1.243Z" transform="translate(-546.789 -557.493)"/><path class="c" d="M569.079,572.394q4.252,2.646,8.552,5.207t8.61,5.1q4.315,2.533,8.655,5.023t8.713,4.92c-2.835-1.765-5.69-3.492-8.552-5.207s-5.732-3.417-8.61-5.1-5.763-3.362-8.655-5.022S572,574.006,569.079,572.394Z" transform="translate(-558.073 -564.854)"/></g><g transform="translate(17.792)"><path class="d" d="M631.043,533.591c-3.692-.747-6.462-4.047-7.86-7.627s-1.7-7.491-2.291-11.3c-.776-4.994-2.115-9.993-4.811-14.229-1.662-2.612-3.8-4.878-5.458-7.5-2.214-3.5-3.494-7.536-5.435-11.206-3.725-7.042-10.658-12.916-18.474-12.8a4.072,4.072,0,0,0-3.455,1.378c-.905,1.352-.244,3.194.54,4.624,1.332,2.428,3,4.758,3.507,7.495.413,2.234.007,4.538.125,6.809.387,7.443,6.212,13.443,7.849,20.705,1.155,5.122.18,10.7,2.151,15.552,1.878,4.624,6.076,7.744,9.149,11.639,1.64,2.079,3.023,4.454,5.168,5.974a17.2,17.2,0,0,0,5.446,2.242q3.274.912,6.57,1.735c.83.207,1.9.318,2.353-.426Z" transform="translate(-582.822 -468.933)"/><path class="c" d="M604.549,496.06c1.858,4.339,3.767,8.653,5.695,12.958s3.874,8.6,5.841,12.888,3.952,8.564,5.955,12.833,4.028,8.527,6.1,12.762c-1.857-4.339-3.766-8.653-5.694-12.959s-3.874-8.6-5.841-12.888-3.952-8.564-5.957-12.832S606.623,500.295,604.549,496.06Z" transform="translate(-593.821 -482.334)"/></g></g><g transform="translate(299.995 334.467)"><path class="e" d="M1237.422,850.464v68.6a2.648,2.648,0,0,1-2.615,2.681H1115.041a2.648,2.648,0,0,1-2.615-2.681v-68.6a2.687,2.687,0,0,1,1.431-2.39,2.543,2.543,0,0,1,1.184-.29h119.767a2.6,2.6,0,0,1,2.178,1.2A2.716,2.716,0,0,1,1237.422,850.464Z" transform="translate(-1112.425 -847.783)"/><path class="f" d="M1238.453,848.98l-56.223,41.972a7.948,7.948,0,0,1-9.551,0l-57.356-42.875a2.544,2.544,0,0,1,1.184-.29h119.767A2.6,2.6,0,0,1,1238.453,848.98Z" transform="translate(-1113.893 -847.783)"/></g><g transform="translate(424.95 360.576)"><path class="g" d="M1445.544,901.1v43.931a1.7,1.7,0,0,1-1.675,1.717h-76.7a1.7,1.7,0,0,1-1.674-1.717V901.1a1.719,1.719,0,0,1,.917-1.531,1.622,1.622,0,0,1,.758-.186h76.7a1.663,1.663,0,0,1,1.4.767A1.736,1.736,0,0,1,1445.544,901.1Z" transform="translate(-1365.493 -899.383)"/><path class="f" d="M1446.2,900.15l-36.006,26.88a5.091,5.091,0,0,1-6.117,0l-36.732-27.458a1.624,1.624,0,0,1,.758-.186h76.7A1.663,1.663,0,0,1,1446.2,900.15Z" transform="translate(-1366.433 -899.383)"/></g><g transform="translate(337.874 60.274)"><path class="e" d="M1228.673,306.731v21.7a.837.837,0,0,1-.827.848h-37.879a.837.837,0,0,1-.827-.848v-21.7a.849.849,0,0,1,.452-.756.807.807,0,0,1,.375-.092h37.879a.821.821,0,0,1,.689.378A.854.854,0,0,1,1228.673,306.731Z" transform="translate(-1189.14 -305.883)"/><path class="f" d="M1229,306.261l-17.782,13.274a2.515,2.515,0,0,1-3.021,0l-18.14-13.56a.808.808,0,0,1,.375-.092h37.879A.822.822,0,0,1,1229,306.261Z" transform="translate(-1189.604 -305.883)"/></g><g transform="translate(404.857 35.524)"><path class="e" d="M1352.358,257.559v15.124a.584.584,0,0,1-.576.591h-26.406a.584.584,0,0,1-.576-.591V257.559a.593.593,0,0,1,.315-.527.558.558,0,0,1,.261-.064h26.406a.572.572,0,0,1,.48.264A.6.6,0,0,1,1352.358,257.559Z" transform="translate(-1324.8 -256.968)"/><path class="f" d="M1352.585,257.232l-12.4,9.254a1.753,1.753,0,0,1-2.106,0l-12.645-9.453a.56.56,0,0,1,.261-.064h26.406A.571.571,0,0,1,1352.585,257.232Z" transform="translate(-1325.124 -256.968)"/></g><g transform="translate(353.243 17.665)"><path class="e" d="M1244.216,222.186v13.143a.508.508,0,0,1-.5.514h-22.947a.507.507,0,0,1-.5-.514V222.186a.515.515,0,0,1,.274-.458.493.493,0,0,1,.227-.056h22.947a.5.5,0,0,1,.417.229A.522.522,0,0,1,1244.216,222.186Z" transform="translate(-1220.266 -221.672)"/><path class="f" d="M1244.413,221.9l-10.772,8.042a1.523,1.523,0,0,1-1.83,0l-10.99-8.215a.493.493,0,0,1,.227-.056H1244A.5.5,0,0,1,1244.413,221.9Z" transform="translate(-1220.547 -221.672)"/></g><g transform="translate(27.562 203.243)"><path class="e" d="M641.744,629.979c0,22.943-18.149,41.541-40.538,41.541a40.609,40.609,0,0,1-38-27.055,42.353,42.353,0,0,1-2.533-14.486c0-22.943,18.149-41.541,40.537-41.541a40.214,40.214,0,0,1,33.218,17.726A42.046,42.046,0,0,1,641.744,629.979Z" transform="translate(-560.669 -588.438)"/><g transform="translate(9.734 9.974)"><path class="h" d="M611.187,671.285a30.232,30.232,0,0,1-21.782-9.246,32.123,32.123,0,0,1,0-44.642,30.28,30.28,0,0,1,43.564,0,32.123,32.123,0,0,1,0,44.642A30.232,30.232,0,0,1,611.187,671.285Zm0-60.786c-15.722,0-28.513,13.108-28.513,29.22s12.791,29.22,28.513,29.22S639.7,655.83,639.7,639.718,626.909,610.5,611.187,610.5Z" transform="translate(-580.383 -608.151)"/></g><g transform="translate(28.884 23.007)"><path class="c" d="M640.116,663.482a11.25,11.25,0,0,1-6.625,3.05V670.9h-4.608v-4.211a23.567,23.567,0,0,1-5.453-1,15.526,15.526,0,0,1-4.263-1.988l2.5-5.745a15.948,15.948,0,0,0,4.186,1.968,15.579,15.579,0,0,0,4.685.747q4.377,0,4.378-2.243a1.855,1.855,0,0,0-1.248-1.751,22.577,22.577,0,0,0-4.013-1.2,37.534,37.534,0,0,1-5.069-1.437,8.522,8.522,0,0,1-3.494-2.46,6.749,6.749,0,0,1-1.46-4.565,7.983,7.983,0,0,1,2.381-5.8,11.236,11.236,0,0,1,6.874-2.971v-4.329h4.608v4.25a21.94,21.94,0,0,1,4.205.787,15.339,15.339,0,0,1,3.591,1.535l-2.343,5.785a15.361,15.361,0,0,0-7.45-2.125,6.122,6.122,0,0,0-3.3.689,2.074,2.074,0,0,0-1.037,1.79,1.77,1.77,0,0,0,1.229,1.653,21.725,21.725,0,0,0,3.956,1.141,36.471,36.471,0,0,1,5.088,1.437,8.789,8.789,0,0,1,3.495,2.44,6.624,6.624,0,0,1,1.478,4.545A7.88,7.88,0,0,1,640.116,663.482Z" transform="translate(-619.167 -633.908)"/></g><path class="i" d="M634.425,606.164c-9.258,12.985-24.494,29.423-43.3,31.446a105.742,105.742,0,0,0-27.926,6.856,42.353,42.353,0,0,1-2.533-14.486c0-22.943,18.149-41.541,40.537-41.541A40.214,40.214,0,0,1,634.425,606.164Z" transform="translate(-560.669 -588.438)"/></g><path class="e" d="M637.811,968.92h-83.4a7.456,7.456,0,0,1-7.363-7.545v-9.369a7.606,7.606,0,0,1,2.623-5.774,7.23,7.23,0,0,1,4.74-1.771h83.4a7.456,7.456,0,0,1,7.362,7.545v9.369A7.455,7.455,0,0,1,637.811,968.92Z" transform="translate(-526.213 -561.077)"/><path class="h" d="M651.43,823.9h-83.4a7.456,7.456,0,0,1-7.363-7.545v-9.369a7.6,7.6,0,0,1,2.623-5.774,7.227,7.227,0,0,1,4.74-1.771h83.4a7.456,7.456,0,0,1,7.363,7.545v9.369A7.456,7.456,0,0,1,651.43,823.9Z" transform="translate(-533.107 -489.435)"/><path class="e" d="M628.987,872.242h-83.4a7.455,7.455,0,0,1-7.363-7.545v-9.368a7.606,7.606,0,0,1,2.623-5.774,7.229,7.229,0,0,1,4.74-1.771h83.4a7.456,7.456,0,0,1,7.363,7.545V864.7A7.456,7.456,0,0,1,628.987,872.242Z" transform="translate(-521.746 -513.316)"/><path class="e" d="M622.849,775.563h-83.4a7.455,7.455,0,0,1-7.362-7.545v-9.368a7.6,7.6,0,0,1,2.623-5.774,7.226,7.226,0,0,1,4.74-1.771h83.4a7.456,7.456,0,0,1,7.363,7.545v9.368A7.455,7.455,0,0,1,622.849,775.563Z" transform="translate(-518.638 -465.555)"/><path class="h" d="M649.32,920.581h-83.4a7.455,7.455,0,0,1-7.363-7.545v-9.369a7.6,7.6,0,0,1,2.623-5.774,7.228,7.228,0,0,1,4.74-1.771h83.4a7.456,7.456,0,0,1,7.363,7.545v9.369A7.455,7.455,0,0,1,649.32,920.581Z" transform="translate(-532.039 -537.196)"/><rect class="j" width="232.568" height="407.881" rx="16.752" transform="translate(84.761 0)"/><rect class="c" width="197.984" height="354.691" rx="14.759" transform="translate(102.053 22.862)"/><rect class="k" width="80.602" height="60.371" rx="11.4" transform="translate(116.119 43.871)"/><rect class="k" width="80.602" height="60.371" rx="15.028" transform="translate(206.287 43.871)"/><rect class="k" width="80.602" height="60.371" rx="12.657" transform="translate(117.161 113.754)"/><rect class="k" width="80.602" height="60.371" rx="10.52" transform="translate(206.287 113.754)"/><rect class="k" width="169.065" height="179.366" rx="14.207" transform="translate(118.393 186.063)"/><g transform="translate(292.742 95.368)"><g transform="translate(159.051 270.092)"><path class="l" d="M1439.759,909.037l3.711,26.2-13.585,4.594-10.027-25.113Z" transform="translate(-1419.858 -909.037)"/></g><g transform="translate(96.754 105.837)"><path class="m" d="M1334.792,598.366c16.7,25.5,37.71,135.381,41.1,152.88,1.559,8.047-18.683,9.427-18.683,9.427C1302.108,660.145,1293.689,600,1293.689,600l30.581-15.584C1329.325,584.625,1326.146,585.16,1334.792,598.366Z" transform="translate(-1293.689 -584.412)"/></g><g transform="translate(154.589 295.719)"><path class="n" d="M1411.652,976.36l28.449-4.706a2.246,2.246,0,0,0,1.814-2.574l-.82-5.2c-.387-2.455-.7-4.418-2.186-4.171l-.233.153a16.831,16.831,0,0,1-14.517,1.935h0c-3.637.882-3.864,2.375-6.654,4.389-2.157,1.56-3.921,3.111-5.092,4.131a4.679,4.679,0,0,0-1.59,3.559c0,.084,0,.175.007.265C1411.016,977,1411.652,976.36,1411.652,976.36Z" transform="translate(-1410.823 -959.685)"/></g><g transform="translate(154.589 302.218)"><path class="c" d="M1411.652,982.705l5.377-.89c1.464-3.02.916-7.148.476-9.287-2.157,1.561-3.921,3.111-5.092,4.131a4.679,4.679,0,0,0-1.59,3.559c0,.084,0,.175.007.265C1411.016,983.349,1411.652,982.705,1411.652,982.705Z" transform="translate(-1410.823 -972.529)"/></g><g transform="translate(154.589 304.774)"><path class="m" d="M1411.652,985.2,1440.1,980.5a2.244,2.244,0,0,0,1.814-2.575l-.054-.341-31.038,5.134c0,.084,0,.175.007.265C1411.016,985.845,1411.652,985.2,1411.652,985.2Z" transform="translate(-1410.823 -977.58)"/></g><g transform="translate(166.013 298.038)"><path class="c" d="M1436.258,968.819a.663.663,0,0,0,.189-.062.7.7,0,0,0,.309-.924l-1.517-3.177a.666.666,0,0,0-.9-.317.7.7,0,0,0-.309.924l1.517,3.177A.669.669,0,0,0,1436.258,968.819Z" transform="translate(-1433.96 -964.269)"/></g><g transform="translate(163.38 299.247)"><path class="c" d="M1430.754,971.117a.688.688,0,0,0,.168-.052.7.7,0,0,0,.341-.913l-1.347-3.086a.668.668,0,0,0-.89-.349.7.7,0,0,0-.34.913l1.347,3.086A.671.671,0,0,0,1430.754,971.117Z" transform="translate(-1428.626 -966.657)"/></g><g transform="translate(137.919 135.05)"><path class="m" d="M1413.671,784.654l.558-.241a132.775,132.775,0,0,1-7.322-29.306c-2.282-16.93-29.008-112.045-29.264-112.96l-.583.172c.257.915,26.97,95.987,29.247,112.873A133.385,133.385,0,0,0,1413.671,784.654Z" transform="translate(-1377.06 -642.147)"/></g><g transform="translate(129.691 136.683)"><path class="m" d="M1376.384,670.322l-.034-.62c-7,.4-15.316-24.135-15.391-24.328l-.563.231C1360.709,646.406,1368.949,670.742,1376.384,670.322Z" transform="translate(-1360.396 -645.374)"/></g><g transform="translate(156.57 267.166)"><path class="o" d="M1436.3,903.254l1.781,8.845s-9.769,7.524-19.544,6.088l-3.705-7.209Z" transform="translate(-1414.834 -903.254)"/></g><g transform="translate(64.861 274.065)"><path class="l" d="M1249.464,921.042l-5.162,25.585-14.138-2.184-1.067-27.554Z" transform="translate(-1229.098 -916.888)"/></g><g transform="translate(64.861 111.606)"><path class="m" d="M1229.1,767.63s14.348,8.319,20.366,2.183c0,0,22.81-84.554,25.242-90.022,17.654-39.678,8.377-65.269,7.272-75.544l-26.673-8.41S1232.961,590,1229.1,767.63Z" transform="translate(-1229.098 -595.814)"/></g><g transform="translate(50.733 300.044)"><path class="n" d="M1201.007,980.569h28.817a2.225,2.225,0,0,0,2.191-2.245v-5.271c0-2.487,0-4.475-1.509-4.475l-.255.113a16.813,16.813,0,0,1-14.632-.46h0c-3.728.276-4.184,1.713-7.251,3.246-2.373,1.188-4.355,2.432-5.669,3.247a4.637,4.637,0,0,0-2.124,3.254c-.013.083-.026.172-.033.263C1200.279,981.1,1201.007,980.569,1201.007,980.569Z" transform="translate(-1200.484 -968.232)"/></g><g transform="translate(50.733 303.29)"><path class="c" d="M1201.007,983.739h5.447c1.915-2.742,2.016-6.908,1.915-9.091-2.373,1.188-4.355,2.432-5.669,3.247a4.637,4.637,0,0,0-2.124,3.253c-.013.083-.026.173-.033.263C1200.279,984.271,1201.007,983.739,1201.007,983.739Z" transform="translate(-1200.484 -974.648)"/></g><g transform="translate(50.733 309.791)"><path class="m" d="M1201.007,990.085h28.817a2.222,2.222,0,0,0,2.191-2.244V987.5h-31.44c-.013.083-.026.172-.033.263C1200.279,990.617,1201.007,990.085,1201.007,990.085Z" transform="translate(-1200.484 -987.495)"/></g><g transform="translate(63.832 300.04)"><path class="c" d="M1228.69,972.991a.661.661,0,0,0,.2-.03.693.693,0,0,0,.449-.862l-1-3.384a.67.67,0,0,0-.841-.46.693.693,0,0,0-.449.862l1,3.384A.676.676,0,0,0,1228.69,972.991Z" transform="translate(-1227.013 -968.224)"/></g><g transform="translate(61.043 300.802)"><path class="c" d="M1222.89,974.381a.64.64,0,0,0,.174-.024.692.692,0,0,0,.478-.845l-.85-3.268a.674.674,0,0,0-.825-.49.693.693,0,0,0-.478.846l.85,3.267A.676.676,0,0,0,1222.89,974.381Z" transform="translate(-1221.366 -969.731)"/></g><g class="p" transform="translate(102.111 161.637)"><path d="M1310.943,694.693l6.4,22.659-12.807,38.236Z" transform="translate(-1304.539 -694.693)"/></g><g transform="translate(67.609 130.539)"><path class="m" d="M1235.268,787.086c.5-20.263,18.384-152.528,18.513-153.79l-.6-.065c-.13,1.262-18.012,133.552-18.517,153.839Z" transform="translate(-1234.662 -633.231)"/></g><g transform="translate(64.861 274.065)"><path class="o" d="M1251.609,919.887l-2.3,9.807s-11.907,4.676-20.214-3.448v-9.358Z" transform="translate(-1229.098 -916.888)"/></g><g transform="translate(0 99.518)"><path class="l" d="M1115.584,576.522l3.291.368c.3.017-2.176,7.6-2.176,7.6s-13.322,1.806-14.316,1.464,3.422-2.013,3.422-2.013-4.514.713-6.018.1c-1.2-.487,4.957-2.126,4.957-2.126-2.62.036-6.86.394-7-.46-.182-1.07,7.371-1.69,7.371-1.69s-5.022.012-5.474-.948,9.761-2.174,9.761-2.174a6.057,6.057,0,0,1-2.363-3.869v-.018a.8.8,0,0,1,1.429-.523C1110.411,574.666,1115.584,576.522,1115.584,576.522Z" transform="translate(-1097.735 -571.923)"/></g><g transform="translate(17.474 61.471)"><path class="l" d="M1187.414,496.73s-11.064,19.44-54.288,42.418l.7,8.313s37.716.556,64.15-27.032C1197.974,520.429,1208.058,502.544,1187.414,496.73Z" transform="translate(-1133.126 -496.73)"/></g><g transform="translate(58.681 40.159)"><path class="n" d="M1216.581,487.8s12.816,15.813,22.59,16.86c0,0,1.3-.918,3.266-2.511,6.5-5.27,13.436-16.718,14.3-27.965.739-9.613-4.046-19.578-4.046-19.578a223.888,223.888,0,0,0-32.282,28.655c-.089.094-.174.188-.258.282Q1218.322,485.564,1216.581,487.8Z" transform="translate(-1216.581 -454.61)"/><path class="f" d="M1216.581,515.781s12.816,15.813,22.59,16.86c0,0,1.3-.918,3.266-2.511-11.586-6.3-18.752-13.857-22.03-18.887-.089.094-.174.188-.258.282Q1218.322,513.542,1216.581,515.781Z" transform="translate(-1216.581 -482.588)"/></g><path class="n" d="M1323.558,549.141c.188,5.09-61.816,2.71-69.811-2.422.013-1.658.04-3.3.067-4.9.02-.936.04-1.865.06-2.779q.121-4.787.322-9.245c.04-.936.088-1.857.134-2.772.134-2.525.282-4.96.45-7.319.067-.943.134-1.864.208-2.772q.272-3.519.6-6.789c.094-.943.188-1.864.288-2.772q.413-3.859.9-7.381c.127-.943.262-1.864.4-2.772q.372-2.569.785-4.953c.155-.943.322-1.871.483-2.772q.4-2.167.819-4.169c.155-.75.309-1.479.47-2.194.04-.2.087-.392.128-.585.45-2.009.913-3.886,1.376-5.641.255-.963.51-1.885.765-2.772.651-2.243,1.3-4.251,1.933-6.06.349-.984.692-1.9,1.034-2.772.886-2.263,1.738-4.127,2.51-5.648.557-1.1,1.074-2.015,1.531-2.779a17.74,17.74,0,0,1,2.228-3.1l.087-.041c.356-.165,1.853-.743,5.779-.936h.007l.383-.021c.007.007.02.007.041,0,1.436-.055,3.182-.062,5.3.021,3.49.131,7.968.5,13.693,1.266,2.625.344,5.511.777,8.68,1.306a9.9,9.9,0,0,1,2.014,1.507,16.193,16.193,0,0,1,2.3,2.779,33.143,33.143,0,0,1,2.967,5.648c.369.88.725,1.809,1.074,2.772.678,1.878,1.308,3.914,1.893,6.06.248.9.483,1.83.711,2.772.45,1.816.866,3.7,1.262,5.641.188.915.362,1.837.537,2.779s.343,1.892.51,2.855c.074.434.148.874.222,1.314.147.915.3,1.843.443,2.772.242,1.637.477,3.295.7,4.953.108.791.208,1.589.309,2.387.013.131.034.254.047.386q.464,3.694.833,7.381c.061.612.127,1.224.181,1.837.033.31.06.626.087.936.222,2.291.417,4.56.591,6.789.081.936.147,1.857.215,2.772.188,2.524.349,4.973.49,7.319.06.942.114,1.871.161,2.772.188,3.391.329,6.514.443,9.245.04.977.074,1.906.108,2.779C1323.431,545.165,1323.5,547.7,1323.558,549.141Z" transform="translate(-1176.715 -413.524)"/><g transform="translate(176.389 118.8)"><path class="l" d="M1458.233,613.466l-.148-3.389c-.03-.3,7.659,1.042,7.659,1.042s3.779,13.215,3.6,14.274-2.465-3.157-2.465-3.157,1.379,4.462,1.018,6.079c-.287,1.287-2.808-4.695-2.808-4.695.436,2.647,1.429,6.886.628,7.164-1,.349-2.758-7.207-2.758-7.207s.78,5.084-.077,5.688-3.588-9.552-3.588-9.552a5.972,5.972,0,0,1-3.37,2.985l-.017,0a.819.819,0,0,1-.723-1.368C1457.236,618.989,1458.233,613.466,1458.233,613.466Z" transform="translate(-1454.974 -610.032)"/></g><g transform="translate(130.279 58.6)"><path class="l" d="M1361.587,506.612s20.439,8.232,49.208,48.491l7.91-1.977s-5.232-38.28-35.879-60.832C1382.827,492.294,1364.037,484.817,1361.587,506.612Z" transform="translate(-1361.587 -491.056)"/></g><g transform="translate(103.532 41.409)"><path class="n" d="M1347.622,501.258s13.289-15.4,12.805-25.455c0,0-1.085-1.176-2.921-2.924-6.077-5.781-19.53-16.6-30.508-15.752-9.383.722-19.581,17.51-19.581,17.51s17.164,10.873,35.244,23.441c.1.076.207.147.311.219Q1345.2,499.837,1347.622,501.258Z" transform="translate(-1307.417 -457.08)"/><path class="f" d="M1383.757,516.683s13.289-15.4,12.8-25.456c0,0-1.085-1.176-2.921-2.924-4.3,12.7-10.5,21.11-14.845,25.2.1.076.207.147.312.219Q1381.332,515.262,1383.757,516.683Z" transform="translate(-1343.552 -472.505)"/></g><g class="q" transform="translate(100.337 39.21)"><path class="c" d="M1320.421,454.022c-.886,4.775-4.886,10.512-12.358,9.024-7.4-1.474-7.243-8.357-7.062-10.252h.007l.383-.02c.007.007.02.007.041,0,1.436-.054,3.182-.06,5.3.02C1310.218,452.921,1314.7,453.282,1320.421,454.022Z" transform="translate(-1300.947 -452.734)"/></g><g transform="translate(100.09 38.77)"><path class="c" d="M1300.447,451.865" transform="translate(-1300.447 -451.865)"/></g><g transform="translate(91.515)"><g transform="translate(5.272 10.339)"><path class="m" d="M1294.423,398.576s-1.742,10.4.41,12.389c0,0,4.351.31,2.586-10S1294.423,398.576,1294.423,398.576Z" transform="translate(-1293.758 -395.674)"/></g><g transform="translate(1.507 19.114)"><ellipse class="l" cx="4.372" cy="4.268" rx="4.372" ry="4.268"/></g><g transform="translate(10.971 26.695)"><path class="l" d="M1308.991,447.363a10.045,10.045,0,0,0,5.5.81,6.059,6.059,0,0,0,5.138-6.572,43.73,43.73,0,0,1-.016-7.125l.007-.106a6.036,6.036,0,0,0-6.1-6.37h-1.867a6.143,6.143,0,0,0-6.215,6.2c.034,1.523.037,2.823.021,3.931-.02,1.316-.072,2.363-.14,3.2A6.013,6.013,0,0,0,1308.991,447.363Z" transform="translate(-1305.299 -428)"/></g><g class="p" transform="translate(10.864 26.695)"><path class="r" d="M1305.35,438.135a11.014,11.014,0,0,0,2.974.712,13.458,13.458,0,0,0,11.182-4.371c.231-3.525.673-6.476.673-6.476h-15.1C1305.326,432.478,1305.386,435.75,1305.35,438.135Z" transform="translate(-1305.082 -428)"/></g><g transform="translate(6.233 6.616)"><path class="l" d="M1318.219,394.4s5.732,22.741-9.72,23.033c-16.986.32-12.161-22.62-12.161-22.62S1306.113,380.479,1318.219,394.4Z" transform="translate(-1295.704 -388.316)"/></g><g transform="translate(0 0.116)"><path class="m" d="M1312.347,402.34c-.211.274-2.187-7.354-1.025-13.638-25.28.077-24.635,5.333-28.242-9.729,0,0,12.7-5.606,23.48-2.636,10.69,2.945,8.264,12.4,8.264,12.4A15.327,15.327,0,0,1,1312.347,402.34Z" transform="translate(-1283.08 -375.469)"/></g><g transform="translate(22.376 13.386)"><path class="m" d="M1336.039,402.92s-4.728-.308-7.641.678c0,0,4.553-2.238,6.25-1.858S1336.039,402.92,1336.039,402.92Z" transform="translate(-1328.398 -401.696)"/></g><g transform="translate(26.053 19.971)"><ellipse class="l" cx="4.17" cy="4.07" rx="4.17" ry="4.07"/></g><g transform="translate(11.527 26.567)"><path class="r" d="M1312.965,428.022l-6.539-.275s.269,4.957,3.493,4.406S1312.965,428.022,1312.965,428.022Z" transform="translate(-1306.426 -427.747)"/></g><g transform="translate(18.215 18.122)"><ellipse class="r" cx="1.259" cy="1.29" rx="1.259" ry="1.29"/></g><g transform="translate(9.351 18.182)"><ellipse class="r" cx="1.259" cy="1.29" rx="1.259" ry="1.29"/></g><g transform="translate(30.411 8.482)"><path class="m" d="M1346,396.908a11.223,11.223,0,0,0,.89-4.9,19.076,19.076,0,0,1-2.031,3.936C1344.068,396.755,1346,396.908,1346,396.908Z" transform="translate(-1344.671 -392.004)"/></g><g transform="translate(30.828 11.721)"><path class="m" d="M1346.225,400.239a17.7,17.7,0,0,1,1.126,4.43,8.516,8.516,0,0,0-1.126-5.426C1344.63,396.891,1346.225,400.239,1346.225,400.239Z" transform="translate(-1345.516 -398.405)"/></g><g transform="translate(8.482)"><path class="m" d="M1312.067,375.589a68.28,68.28,0,0,0-11.808-.232l5.9.618" transform="translate(-1300.259 -375.241)"/></g></g><g class="s" transform="translate(100.08 2.379)"><path class="c" d="M1321.22,386.985a12.526,12.526,0,0,0-5.878-5.176,18.9,18.9,0,0,0-9.107-1.265,39.136,39.136,0,0,0-5.487.841c-.323.072-.461-.437-.137-.508,5.961-1.32,12.868-1.766,17.973,2.274a12.33,12.33,0,0,1,3.08,3.568.259.259,0,0,1-.444.266Z" transform="translate(-1300.427 -379.943)"/></g><g class="s" transform="translate(94.477 3.751)"><path class="c" d="M1293.386,383.172a39.539,39.539,0,0,1-3.985.836c-.324.051-.464-.457-.137-.509a39.416,39.416,0,0,0,3.985-.836.264.264,0,0,1,.137.509Z" transform="translate(-1289.078 -382.654)"/></g><g class="s" transform="translate(100.373 8.441)"><path class="c" d="M1319.05,393.82a29.545,29.545,0,0,0-4.219-1.11,24.056,24.056,0,0,0-4.585-.244c-3,.092-5.98.544-8.979.7-.331.017-.33-.51,0-.527,3.053-.162,6.085-.629,9.143-.709a24.8,24.8,0,0,1,4.4.242,28.955,28.955,0,0,1,4.381,1.136c.316.1.181.61-.137.509Z" transform="translate(-1301.019 -391.922)"/></g><g class="s" transform="translate(121.616 13.929)"><path class="c" d="M1344.365,402.774c.318.064.336.79.368,1.021a10.537,10.537,0,0,1,.071,2.49c-.032.335-.547.338-.515,0a10.272,10.272,0,0,0-.016-2.048c-.027-.253-.061-.505-.111-.754a.953.953,0,0,1-.048-.214c.012-.178-.151-.038.114.015-.325-.065-.188-.574.137-.509Z" transform="translate(-1344.042 -402.769)"/></g><path class="t" d="M1363,527.512l13.334,16.8-.96-8.4Z" transform="translate(-1232.025 -450.465)"/><path class="t" d="M1249.222,535.918l7.407-14.674-2.447,16.032Z" transform="translate(-1174.424 -447.369)"/></g><path class="j" d="M0,0H73.213a0,0,0,0,1,0,0V0a18.85,18.85,0,0,1-18.85,18.85H18.85A18.85,18.85,0,0,1,0,0V0A0,0,0,0,1,0,0Z" transform="translate(165.44 15.491)"/><ellipse class="c" cx="3.096" cy="3.173" rx="3.096" ry="3.173" transform="translate(180.01 22.116)"/><rect class="c" width="35.878" height="2.613" rx="1.306" transform="translate(189.207 23.702)"/><path class="i" d="M909.082,195.236v25.95c-15.89,22.629-36.86,46.435-59.9,56.713-49.82,22.227-78.424,53.189-96.8,109.095s-24.531,157.236-72.456,165.2a16.415,16.415,0,0,1-3.418.212V195.236a8.376,8.376,0,0,1,8.271-8.476H900.81A8.376,8.376,0,0,1,909.082,195.236Z" transform="translate(-591.753 -186.76)"/><rect class="m" width="525" height="3.359" rx="1.68" transform="translate(0 407.881)"/><g transform="translate(83.348 95.368)"><g transform="translate(0 13.728)"><g transform="translate(54.013 110.005)"><path class="m" d="M865.559,635.979s-.8,5.71-3.5,16.563c-1.815,7.306-4.49,16.945-8.36,28.741-2.005,6.11-4.331,12.8-7.023,20.046v0l0,.012a734.526,734.526,0,0,1-34.054,76.89H783.043c6.017-30.251,19.063-92.538,31.625-126.36,2.774-7.467,5.525-13.546,8.17-17.588,8.986-13.726,5.682-14.283,10.936-14.5l21.706,11.061Z" transform="translate(-783.043 -619.781)"/></g><g transform="translate(60.858 140.37)"><path class="m" d="M829.79,679.969c-.026.092-.31,1.1-.8,2.872-1.2,4.291-3.638,13.039-6.625,23.909q-.09.33-.182.663c-8.482,30.875-21.217,78.237-22.786,89.874-.509,3.773-1.148,7.331-1.84,10.591h-.644c.7-3.282,1.347-6.869,1.861-10.679,2.137-15.852,24.894-97.663,29.579-114.417.515-1.843.812-2.9.838-2.992Z" transform="translate(-796.907 -679.791)"/></g><g transform="translate(85.677 142.067)"><path class="m" d="M847.173,709.075l.035-.645c7.28.412,15.919-25.086,16-25.286l.585.24C863.465,684.218,854.9,709.512,847.173,709.075Z" transform="translate(-847.173 -683.145)"/></g><g transform="translate(111.161 116.002)"><path class="m" d="M928.419,784.088c-3.961-14.5-8.726-31.818-12.459-45-3.017-10.647-5.361-18.593-6.065-20.175-1.685-3.787-3.133-7.45-4.374-10.989q-.129-.366-.253-.73c-6.877-19.972-7.135-35.938-5.926-47.722.885-8.625,2.557-15.008,3-19.079l11.735-3.7h0l15.986-5.041s6.354-1.661,12.989,23.175c5.422,20.287,11.03,58.257,13.516,129.258Z" transform="translate(-898.785 -631.632)"/></g><g class="p" transform="translate(117.649 168.004)"><path d="M918.58,734.406l-6.656,23.552L925.236,797.7Z" transform="translate(-911.924 -734.406)"/></g><g transform="translate(146.948 135.68)"><path class="m" d="M972.584,675.776c2.574,19.354,11.649,87.546,16.085,127.525h-.632c-4.434-39.939-13.493-108.021-16.074-127.419-.433-3.258-.684-5.142-.7-5.29l.627-.068C971.906,670.671,972.155,672.542,972.584,675.776Z" transform="translate(-971.264 -670.523)"/></g><g transform="translate(218.696 18.974)"><path class="l" d="M1118.656,450.686l-2.078,2.811c-.2.242,7.154,3.737,7.154,3.737s10.84-9.025,11.3-10.039-3.927,1.212-3.927,1.212,3.748-2.985,4.37-4.587c.5-1.275-5.105,2.321-5.105,2.321,1.9-2,5.187-5.03,4.661-5.752-.658-.9-6.508,4.5-6.508,4.5s3.594-3.88,3.209-4.915-8.57,6.006-8.57,6.006a6.416,6.416,0,0,0-1.166-4.592l-.012-.014a.832.832,0,0,0-1.406.733C1120.981,445.356,1118.656,450.686,1118.656,450.686Z" transform="translate(-1116.574 -439.871)"/></g><g transform="translate(147.873 29.336)"><path class="l" d="M976.117,472.1s22.23,5.311,70.024-11.753l5.631,6.474s-26.512,29.6-65.721,30.372C986.052,497.2,965.667,492.238,976.117,472.1Z" transform="translate(-973.137 -460.351)"/></g><g transform="translate(118.703 39.162)"><path class="e" d="M964.307,480.05s2.511,21.21-3.694,29.525c0,0-1.605.351-4.182.737-8.529,1.274-21.916-1.531-30.824-8.89-7.614-6.29-11.546-17.108-11.546-17.108a225.874,225.874,0,0,1,44.17-4.54c.133,0,.263,0,.392,0Q961.413,479.8,964.307,480.05Z" transform="translate(-914.06 -479.769)"/><path class="f" d="M1007.748,480.054s2.511,21.21-3.694,29.525c0,0-1.605.351-4.182.737,3.629-13.464,3.169-24.411,1.8-30.538.133,0,.263,0,.392,0Q1004.855,479.8,1007.748,480.054Z" transform="translate(-957.502 -479.772)"/></g><path class="e" d="M844.721,583.121c-.2,5.291,64.251,2.817,72.56-2.517-.014-1.723-.042-3.425-.07-5.09-.021-.973-.041-1.938-.063-2.889q-.125-4.976-.335-9.609c-.042-.973-.091-1.931-.14-2.882-.139-2.624-.293-5.155-.467-7.607-.07-.979-.14-1.937-.216-2.881q-.283-3.657-.628-7.057c-.1-.98-.2-1.937-.3-2.881q-.429-4.011-.935-7.672c-.133-.98-.272-1.938-.412-2.882q-.388-2.67-.816-5.148c-.16-.979-.335-1.944-.5-2.881q-.419-2.253-.852-4.333c-.16-.78-.321-1.538-.488-2.281-.041-.207-.09-.408-.132-.608-.468-2.088-.949-4.04-1.431-5.863-.265-1-.53-1.959-.8-2.882-.676-2.331-1.346-4.418-2.009-6.3q-.544-1.533-1.074-2.881c-.921-2.352-1.807-4.29-2.609-5.87-.579-1.144-1.117-2.095-1.591-2.889A18.448,18.448,0,0,0,899.1,484l-.091-.043c-.37-.171-1.926-.773-6.007-.972h-.007l-.4-.022c-.007.007-.021.007-.042,0-1.493-.057-3.307-.064-5.5.022-3.628.136-8.282.522-14.233,1.316-2.728.357-5.729.808-9.021,1.359a10.277,10.277,0,0,0-2.093,1.566,16.813,16.813,0,0,0-2.393,2.889,34.463,34.463,0,0,0-3.085,5.87c-.384.915-.753,1.88-1.116,2.881-.7,1.952-1.36,4.069-1.967,6.3-.258.937-.5,1.9-.74,2.882-.468,1.887-.9,3.846-1.312,5.863-.2.951-.377,1.909-.558,2.889s-.356,1.966-.53,2.967c-.077.45-.154.908-.23,1.366-.154.951-.307,1.916-.46,2.881-.252,1.7-.5,3.425-.726,5.148-.112.822-.216,1.651-.321,2.481-.014.136-.035.265-.049.4q-.481,3.839-.865,7.672c-.063.636-.133,1.273-.189,1.909-.035.322-.063.651-.09.972-.231,2.381-.433,4.74-.614,7.057-.083.973-.154,1.93-.223,2.881-.2,2.624-.363,5.17-.51,7.607-.063.98-.118,1.945-.167,2.882-.2,3.525-.342,6.771-.46,9.609-.042,1.015-.077,1.98-.112,2.889C844.853,578.989,844.776,581.627,844.721,583.121Z" transform="translate(-760.254 -442.163)"/><path class="u" d="M674.5,633.065a4.64,4.64,0,0,1,1.233-3.089c4.1-4.394,18.6-17.183,42.836-9.472,22.625,7.2,53.617-.154,66.127-3.726a4.5,4.5,0,0,1,5.681,4.34l.974,53.7A4.6,4.6,0,0,1,788.7,679.1c-8.917,4.106-38.464,15.463-66.819,1.1-15.648-7.928-31.87,1.538-40.995,8.781a4.478,4.478,0,0,1-7.235-3.7Z" transform="translate(-673.652 -508.208)"/><path class="v" d="M687.474,644.083a3.571,3.571,0,0,1,.95-2.379c3.157-3.385,21.337-11.394,40.01-5.453,17.43,5.545,47.558-.118,57.2-2.87a3.469,3.469,0,0,1,4.377,3.344l.75,41.373a3.546,3.546,0,0,1-2.04,3.294c-6.87,3.163-33.606,10.231-55.451-.837-12.055-6.107-33.839-1.7-40.869,3.885a3.45,3.45,0,0,1-5.574-2.851Z" transform="translate(-680.319 -516.429)"/><text class="w" transform="translate(45.307 149.452)"><tspan x="0" y="0">$</tspan></text><g transform="translate(38.814 123.48)"><path class="l" d="M763.815,649.979l.154-3.523c.031-.315-7.96,1.083-7.96,1.083s-3.928,13.735-3.743,14.836,2.562-3.282,2.562-3.282-1.433,4.638-1.058,6.319c.3,1.338,2.919-4.88,2.919-4.88-.453,2.752-1.486,7.158-.652,7.447,1.043.362,2.866-7.491,2.866-7.491s-.81,5.284.08,5.912,3.731-9.929,3.731-9.929a6.2,6.2,0,0,0,3.5,3.1l.018,0a.851.851,0,0,0,.752-1.422C764.853,655.72,763.815,649.979,763.815,649.979Z" transform="translate(-752.26 -646.411)"/></g><g transform="translate(42.315 60.908)"><path class="l" d="M818.72,538.917s-21.244,8.556-51.146,50.4l-8.222-2.055s5.438-39.788,37.292-63.228C796.644,524.035,816.174,516.263,818.72,538.917Z" transform="translate(-759.352 -522.748)"/></g><g transform="translate(74.372 43.04)"><path class="e" d="M837.6,533.353s-13.813-16-13.31-26.458c0,0,1.127-1.222,3.036-3.039,6.316-6.009,20.3-17.251,31.71-16.373,9.753.75,20.352,18.2,20.352,18.2s-17.839,11.3-36.631,24.364c-.108.08-.216.153-.324.227Q840.12,531.876,837.6,533.353Z" transform="translate(-824.277 -487.434)"/><path class="f" d="M837.6,549.385s-13.813-16-13.31-26.458c0,0,1.127-1.222,3.036-3.039,4.469,13.2,10.909,21.942,15.43,26.191-.108.079-.216.153-.324.227Q840.12,547.908,837.6,549.385Z" transform="translate(-824.277 -503.467)"/></g><g class="q" transform="translate(112.563 40.755)"><path class="c" d="M901.624,484.255c.921,4.964,5.079,10.926,12.844,9.38,7.689-1.532,7.528-8.687,7.34-10.655H921.8l-.4-.021c-.007.007-.021.007-.042,0-1.493-.056-3.307-.063-5.5.021C912.229,483.111,907.575,483.486,901.624,484.255Z" transform="translate(-901.624 -482.917)"/></g><g transform="translate(133.06 40.297)"><path class="c" d="M943.137,482.013" transform="translate(-943.137 -482.013)"/></g><g transform="translate(106.226)"><g transform="translate(26.024 10.746)"><path class="m" d="M945.047,426.626s1.811,10.811-.426,12.877c0,0-4.522.322-2.687-10.389S945.047,426.626,945.047,426.626Z" transform="translate(-941.496 -423.61)"/></g><g transform="translate(25.092 19.867)"><ellipse class="l" cx="4.545" cy="4.436" rx="4.545" ry="4.436"/></g><g transform="translate(9.413 27.747)"><path class="l" d="M918.947,477.335a10.438,10.438,0,0,1-5.719.842,6.3,6.3,0,0,1-5.341-6.831,45.42,45.42,0,0,0,.017-7.405l-.007-.11a6.273,6.273,0,0,1,6.342-6.621h1.941a6.384,6.384,0,0,1,6.459,6.448c-.035,1.583-.039,2.934-.021,4.086.021,1.368.074,2.457.145,3.323A6.25,6.25,0,0,1,918.947,477.335Z" transform="translate(-907.853 -457.209)"/></g><g class="p" transform="translate(8.765 27.747)"><path class="r" d="M921.954,467.743a11.428,11.428,0,0,1-3.092.74,13.988,13.988,0,0,1-11.622-4.543c-.24-3.664-.7-6.731-.7-6.731h15.691C921.979,461.864,921.916,465.264,921.954,467.743Z" transform="translate(-906.541 -457.209)"/></g><g transform="translate(4.787 6.876)"><path class="l" d="M899.565,422.281s-5.957,23.637,10.1,23.94c17.655.333,12.64-23.511,12.64-23.511S912.148,407.817,899.565,422.281Z" transform="translate(-898.484 -415.962)"/></g><g transform="translate(2.099 0.12)"><path class="m" d="M896.268,430.538c.22.285,2.274-7.643,1.066-14.175,26.277.08,25.606,5.543,29.355-10.113,0,0-13.2-5.827-24.4-2.739C891.173,406.572,893.7,416.4,893.7,416.4A15.93,15.93,0,0,0,896.268,430.538Z" transform="translate(-893.04 -402.609)"/></g><g transform="translate(4.526 13.913)"><path class="m" d="M897.979,431.141s4.914-.32,7.941.7c0,0-4.732-2.326-6.5-1.931S897.979,431.141,897.979,431.141Z" transform="translate(-897.956 -429.869)"/></g><g transform="translate(0 20.757)"><ellipse class="l" cx="4.334" cy="4.231" rx="4.334" ry="4.231"/></g><g transform="translate(16.968 27.614)"><path class="r" d="M923.156,457.232l6.8-.286s-.279,5.152-3.631,4.58S923.156,457.232,923.156,457.232Z" transform="translate(-923.154 -456.946)"/></g><g transform="translate(14.197 18.836)"><ellipse class="r" cx="1.309" cy="1.341" rx="1.309" ry="1.341"/></g><g transform="translate(23.411 18.898)"><ellipse class="r" cx="1.309" cy="1.341" rx="1.309" ry="1.341"/></g><g transform="translate(1.799 8.815)"><path class="m" d="M893.387,424.892a11.664,11.664,0,0,1-.925-5.1,19.775,19.775,0,0,0,2.111,4.092C895.4,424.732,893.387,424.892,893.387,424.892Z" transform="translate(-892.432 -419.794)"/></g><g transform="translate(1.732 12.182)"><path class="m" d="M893.534,428.354a18.393,18.393,0,0,0-1.17,4.6,8.854,8.854,0,0,1,1.17-5.64C895.191,424.874,893.534,428.354,893.534,428.354Z" transform="translate(-892.297 -426.448)"/></g><g transform="translate(14.658)"><path class="m" d="M918.476,402.733a70.967,70.967,0,0,1,12.273-.241l-6.137.642Z" transform="translate(-918.476 -402.372)"/></g></g><g class="s" transform="translate(110.958 2.473)"><path class="c" d="M898.875,414.579a13.022,13.022,0,0,1,6.109-5.38,19.647,19.647,0,0,1,9.465-1.316,40.629,40.629,0,0,1,5.7.875c.336.074.48-.454.142-.529-6.2-1.372-13.375-1.835-18.681,2.364a12.824,12.824,0,0,0-3.2,3.708.269.269,0,0,0,.462.277Z" transform="translate(-898.374 -407.259)"/></g><g class="s" transform="translate(134.227 3.899)"><path class="c" d="M945.691,410.616a41.069,41.069,0,0,0,4.142.869c.337.053.482-.476.142-.529a40.928,40.928,0,0,1-4.142-.868.274.274,0,0,0-.142.528Z" transform="translate(-945.501 -410.077)"/></g><g class="s" transform="translate(113.697 8.773)"><path class="c" d="M904.249,421.683a30.663,30.663,0,0,1,4.385-1.154,25,25,0,0,1,4.766-.254c3.121.1,6.216.566,9.333.731.344.018.343-.53,0-.548-3.173-.168-6.325-.653-9.5-.736a25.749,25.749,0,0,0-4.569.252,30.042,30.042,0,0,0-4.554,1.18c-.327.1-.187.634.142.529Z" transform="translate(-903.921 -419.71)"/></g><g class="s" transform="translate(109.851 14.477)"><path class="c" d="M896.633,430.99c-.33.067-.349.821-.383,1.061a10.969,10.969,0,0,0-.073,2.588c.034.348.569.351.535,0a10.7,10.7,0,0,1,.017-2.129c.028-.263.064-.525.116-.784a1.024,1.024,0,0,0,.049-.223c-.013-.185.156-.04-.118.015.337-.068.195-.6-.142-.528Z" transform="translate(-896.131 -430.984)"/></g><path class="t" d="M863.907,560.64,850.048,578.1l1-8.732Z" transform="translate(-762.951 -480.559)"/><path class="t" d="M983.11,531.674l-8.1-10.511,1.526,10.107Z" transform="translate(-826.213 -461.057)"/></g><g transform="translate(218.908 4.827)"><path class="h" d="M0,0,5.3-.059,5.163,12.456a3.864,3.864,0,0,1-3.784,3.823A1.525,1.525,0,0,1-.163,14.722Z" transform="translate(2.432 29.042) rotate(-32.666)"/><path class="h" d="M1136.711,426.077l-9.58,4.222a7.014,7.014,0,0,1-9-2.663h0a7.41,7.41,0,0,1,1.435-9.53l8-6.826Z" transform="translate(-1117.003 -397.872)"/><path class="e" d="M1164.524,409.014l-18.645,4.365-8.93-14.614,12.948-13.983Z" transform="translate(-1127.1 -384.781)"/></g><g transform="translate(251.661 8.919)"><path class="e" d="M1184.734,400.281c-.344.291.032.02.149-.046l.789-.439,2.583-1.436,5.753-3.195,1.329-.738a.836.836,0,0,0-.828-1.45q-4.741,2.632-9.481,5.266a8.838,8.838,0,0,0-1.453.85.86.86,0,0,0,0,1.188.823.823,0,0,0,1.159,0Z" transform="translate(-1183.337 -392.868)"/></g><g transform="translate(255.559 19.237)"><path class="e" d="M1192.02,416.133a6.4,6.4,0,0,0,1.063-.115l2.577-.284,5.783-.641,1.345-.149a.854.854,0,0,0,.819-.84.834.834,0,0,0-.819-.839q-4.719.524-9.438,1.045a7.994,7.994,0,0,1-1.33.145c-1.053-.07-1.049,1.61,0,1.68Z" transform="translate(-1191.232 -413.26)"/></g><g transform="translate(247.777)"><path class="e" d="M1176.984,385.38a6.722,6.722,0,0,1,.64-.877l1.556-2.124,3.495-4.765.813-1.108a.857.857,0,0,0-.294-1.149.828.828,0,0,0-1.121.3q-2.852,3.888-5.7,7.777a8.381,8.381,0,0,0-.8,1.1c-.479.961.936,1.812,1.416.848Z" transform="translate(-1175.471 -375.241)"/></g></g><g transform="translate(428.013 71.946)"><rect class="x" width="88.463" height="56.075" rx="5.184" transform="translate(0.189)"/><ellipse class="i" cx="15.408" cy="15.789" rx="15.408" ry="15.789" transform="translate(29.013 3.999)"/><path class="c" d="M1464.75,359.343l-12.565-7.434a1.076,1.076,0,0,0-1.613.955v14.868a1.075,1.075,0,0,0,1.613.954l12.565-7.434A1.116,1.116,0,0,0,1464.75,359.343Z" transform="translate(-1411.627 -340.219)"/><rect class="i" width="75.535" height="1.916" rx="0.958" transform="translate(6.857 47.91)"/><rect class="y" width="42.443" height="1.916" rx="0.958" transform="translate(6.857 47.91)"/><ellipse class="c" cx="2.358" cy="2.416" rx="2.358" ry="2.416" transform="translate(46.128 46.577)"/><rect class="i" width="75.535" height="1.916" rx="0.958" transform="translate(6.857 39.661)"/><rect class="y" width="50.98" height="1.916" rx="0.958" transform="translate(6.857 39.661)"/><ellipse class="c" cx="2.358" cy="2.416" rx="2.358" ry="2.416" transform="translate(54.259 38.161)"/><path class="i" d="M1456.626,329.093c-12.111,9.195-36.2,26.634-52.283,32.7-22.238,8.382-28.092,8.716-28.092,8.716a24.234,24.234,0,0,0-4.553.859V331.716a2.591,2.591,0,0,1,2.559-2.623Z" transform="translate(-1371.697 -329.021)"/></g><g transform="translate(135.782 115.875)"><path class="x" d="M803.556,448.953a16.7,16.7,0,0,1-21.32-6.984,17.575,17.575,0,0,1,7.715-24.73,16.66,16.66,0,0,1,20.353,5.5,17.573,17.573,0,0,1-6.749,26.216Z" transform="translate(-779.847 -415.77)"/><g transform="translate(9.271 11.033)"><path class="c" d="M813.208,440.333a4.706,4.706,0,0,1,.074,3.531l-.055.144-2.71,7.134a1.524,1.524,0,0,1-1.989.9l-7.035-2.806A4.542,4.542,0,0,1,799,446.789a4.707,4.707,0,0,1-.068-3.546,4.511,4.511,0,0,1,5.887-2.586l.011,0,.055-.144a4.47,4.47,0,0,1,5.83-2.627A4.541,4.541,0,0,1,813.208,440.333Z" transform="translate(-798.623 -437.574)"/></g></g><g transform="translate(179.776 65.442)"><path class="x" d="M902.28,336.409a16.72,16.72,0,0,1-32.744,1.434,17.561,17.561,0,0,1-.314-7.614,16.665,16.665,0,0,1,30.139-7.006A17.5,17.5,0,0,1,902.28,336.409Z" transform="translate(-868.946 -316.097)"/><g transform="translate(9.171 11.736)"><path class="c" d="M902.8,345.832a4.585,4.585,0,0,1-1.858,2.95l-.123.088-6.108,4.327a1.5,1.5,0,0,1-2.125-.4l-4.268-6.325a4.664,4.664,0,0,1-.722-3.432,4.583,4.583,0,0,1,1.871-2.959,4.452,4.452,0,0,1,6.252,1.23l.006.01.123-.087a4.409,4.409,0,0,1,6.228,1.164A4.664,4.664,0,0,1,902.8,345.832Z" transform="translate(-887.52 -339.29)"/></g></g><g transform="translate(141.453 75.957)"><path class="x" d="M808.331,357.9a10.9,10.9,0,0,1-13.4-1.254h0a11.341,11.341,0,0,1-1.9-2.35,11.546,11.546,0,0,1,3.516-15.684,10.906,10.906,0,0,1,13.6,1.446,11.365,11.365,0,0,1,1.705,2.158A11.546,11.546,0,0,1,808.331,357.9Z" transform="translate(-791.331 -336.878)"/><g transform="translate(6.21 6.983)"><path class="c" d="M812.992,352.1a3.084,3.084,0,0,1,.376,2.288l-.022.1-1.1,4.9a1.009,1.009,0,0,1-1.21.776l-4.833-1.138a2.955,2.955,0,0,1-1.845-1.346,3.086,3.086,0,0,1-.373-2.3,2.984,2.984,0,0,1,3.586-2.255l.007,0,.022-.1a2.933,2.933,0,0,1,5.39-.93Z" transform="translate(-803.908 -350.679)"/></g></g><g transform="translate(236.055 98.293)"><path class="x" d="M1008.217,396.432a12.774,12.774,0,0,1-14.828,10.507,12.917,12.917,0,0,1-10.279-10.65,13.326,13.326,0,0,1,.027-4.545,12.775,12.775,0,0,1,14.828-10.507,12.952,12.952,0,0,1,10.41,11.672A13.344,13.344,0,0,1,1008.217,396.432Z" transform="translate(-982.928 -381.022)"/><g transform="translate(6.958 8.904)"><path class="c" d="M1008.608,403.581a3.478,3.478,0,0,1-1.41,2.238l-.093.066-4.634,3.283a1.141,1.141,0,0,1-1.612-.3l-3.238-4.8a3.538,3.538,0,0,1-.548-2.6,3.48,3.48,0,0,1,1.42-2.245,3.377,3.377,0,0,1,4.744.933l.005.008.093-.066a3.345,3.345,0,0,1,4.725.883A3.539,3.539,0,0,1,1008.608,403.581Z" transform="translate(-997.019 -398.618)"/></g><path class="i" d="M1008.375,392.907c-7.007,2.924-16.616,5.595-25.265,3.381a13.326,13.326,0,0,1,.027-4.545,12.775,12.775,0,0,1,14.828-10.507A12.952,12.952,0,0,1,1008.375,392.907Z" transform="translate(-982.928 -381.022)"/></g><g transform="translate(452.822 279.337)"><path class="x" d="M1443.729,752.1a11,11,0,0,1-12.775,9.052,11.128,11.128,0,0,1-8.855-9.175,11.483,11.483,0,0,1,.024-3.916,11.006,11.006,0,0,1,12.775-9.052,11.158,11.158,0,0,1,8.968,10.055A11.529,11.529,0,0,1,1443.729,752.1Z" transform="translate(-1421.942 -738.827)"/><g transform="translate(5.994 7.67)"><path class="c" d="M1444.066,758.262a3,3,0,0,1-1.214,1.928l-.081.057-3.992,2.828a.983.983,0,0,1-1.389-.26l-2.789-4.134a3.048,3.048,0,0,1-.472-2.244,3,3,0,0,1,1.223-1.934,2.91,2.91,0,0,1,4.087.8l0,.006.08-.057a2.882,2.882,0,0,1,4.071.761A3.048,3.048,0,0,1,1444.066,758.262Z" transform="translate(-1434.082 -753.986)"/></g><path class="i" d="M1443.866,749.067c-6.037,2.519-14.316,4.82-21.767,2.912a11.483,11.483,0,0,1,.024-3.916,11.006,11.006,0,0,1,12.775-9.052A11.158,11.158,0,0,1,1443.866,749.067Z" transform="translate(-1421.942 -738.827)"/></g><g transform="translate(479.057 313.987)"><path class="x" d="M1490.959,816.985a8.022,8.022,0,0,1-9.312,6.6,8.112,8.112,0,0,1-6.455-6.688,8.375,8.375,0,0,1,.017-2.854,8.022,8.022,0,0,1,9.312-6.6,8.134,8.134,0,0,1,6.538,7.33A8.424,8.424,0,0,1,1490.959,816.985Z" transform="translate(-1475.077 -807.308)"/><g transform="translate(4.369 5.591)"><path class="c" d="M1491.2,821.475a2.184,2.184,0,0,1-.885,1.405l-.059.042-2.91,2.061a.717.717,0,0,1-1.012-.189l-2.033-3.014a2.224,2.224,0,0,1-.344-1.635,2.186,2.186,0,0,1,.891-1.41,2.121,2.121,0,0,1,2.979.586l0,.005.059-.042a2.1,2.1,0,0,1,2.967.555A2.223,2.223,0,0,1,1491.2,821.475Z" transform="translate(-1483.927 -818.358)"/></g><path class="i" d="M1491.058,814.772c-4.4,1.836-10.435,3.513-15.867,2.123a8.375,8.375,0,0,1,.017-2.854,8.022,8.022,0,0,1,9.312-6.6A8.134,8.134,0,0,1,1491.058,814.772Z" transform="translate(-1475.077 -807.308)"/></g><g transform="translate(486.35 281.764)"><path class="x" d="M1501.408,750.667a5.839,5.839,0,0,1-6.778,4.8,5.905,5.905,0,0,1-4.7-4.869,6.094,6.094,0,0,1,.012-2.078,5.839,5.839,0,0,1,6.778-4.8,5.92,5.92,0,0,1,4.759,5.335A6.1,6.1,0,0,1,1501.408,750.667Z" transform="translate(-1489.848 -743.623)"/><g transform="translate(3.18 4.07)"><path class="c" d="M1501.587,753.935a1.593,1.593,0,0,1-.644,1.023l-.043.03-2.118,1.5a.521.521,0,0,1-.737-.138l-1.48-2.194a1.617,1.617,0,0,1-.251-1.19,1.59,1.59,0,0,1,.649-1.026,1.544,1.544,0,0,1,2.168.426l0,0,.042-.03a1.529,1.529,0,0,1,2.16.4A1.619,1.619,0,0,1,1501.587,753.935Z" transform="translate(-1496.289 -751.667)"/></g><path class="i" d="M1501.48,749.056c-3.2,1.336-7.6,2.557-11.549,1.545a6.094,6.094,0,0,1,.012-2.078,5.839,5.839,0,0,1,6.778-4.8A5.92,5.92,0,0,1,1501.48,749.056Z" transform="translate(-1489.848 -743.623)"/></g><path class="i" d="M899.361,323.222a34.559,34.559,0,0,1-21.236,14.786c-3.749.932-6.534.743-8.589-.166a17.561,17.561,0,0,1-.314-7.614,16.665,16.665,0,0,1,30.139-7.006Z" transform="translate(-689.171 -250.655)"/><path class="i" d="M810.142,340.061c-2.343,5.111-7.7,14.833-15.21,16.588h0a11.341,11.341,0,0,1-1.9-2.35,11.546,11.546,0,0,1,3.516-15.684A10.906,10.906,0,0,1,810.142,340.061Z" transform="translate(-649.878 -260.921)"/><path class="i" d="M810.3,422.737c-5.42,5.941-16.6,16.758-28.069,19.232a17.575,17.575,0,0,1,7.715-24.73A16.66,16.66,0,0,1,810.3,422.737Z" transform="translate(-644.065 -299.895)"/></g></g></svg>